<svg width="392" height="392" viewBox="0 0 392 392" fill="none" xmlns="http://www.w3.org/2000/svg">
<g clip-path="url(#clip0_3044_11355)">
<path d="M196 392C304.248 392 392 304.248 392 196C392 87.7522 304.248 0 196 0C87.7522 0 0 87.7522 0 196C0 304.248 87.7522 392 196 392Z" fill="url(#paint0_linear_3044_11355)"/>
<path d="M20.4697 77.1461L32.6774 69.4661C57.9661 53.554 85.6341 42.024 114.472 35.3831L121.313 33.8069V97.1441L113.623 99.0717C85.3429 106.154 58.2773 117.95 33.5909 133.948L20.4697 142.451V77.1461Z" fill="#1E1E1E"/>
<path fill-rule="evenodd" clip-rule="evenodd" d="M30.4639 82.753C30.8797 82.753 31.2168 83.0901 31.2168 83.5059V125.761C31.2168 126.177 30.8797 126.514 30.4639 126.514C30.048 126.514 29.7109 126.177 29.7109 125.761V83.5059C29.7109 83.0901 30.048 82.753 30.4639 82.753Z" fill="#42AAFF"/>
<path fill-rule="evenodd" clip-rule="evenodd" d="M104.166 55.8084C104.518 56.0302 104.624 56.4952 104.402 56.8469L88.4545 82.1356C88.3308 82.3317 88.1238 82.4598 87.8933 82.4831C87.6627 82.5064 87.4342 82.4222 87.2739 82.2549L83.7583 78.5856L72.9258 93.1167C72.7947 93.2925 72.5934 93.4025 72.3747 93.4178C72.1559 93.4331 71.9413 93.3523 71.787 93.1964L63.0855 84.4067L52.2089 103.941C52.1086 104.121 51.9389 104.252 51.7393 104.303C51.5397 104.355 51.3278 104.322 51.1528 104.213L45.019 100.391L35.8924 114.711C35.6689 115.061 35.2034 115.165 34.8528 114.941C34.5021 114.718 34.399 114.252 34.6225 113.901L44.1497 98.9531C44.3716 98.605 44.8324 98.5004 45.1828 98.7188L51.278 102.517L62.2575 82.7983C62.3727 82.5914 62.5786 82.4508 62.8132 82.4186C63.0478 82.3865 63.2839 82.4666 63.4505 82.6349L72.2415 91.515L83.0828 76.9722C83.2152 76.7946 83.419 76.6843 83.64 76.6707C83.8611 76.657 84.0769 76.7414 84.2301 76.9013L87.6947 80.5174L103.128 56.0437C103.35 55.6919 103.815 55.5866 104.166 55.8084Z" fill="#42AAFF"/>
<path d="M46.8591 100.802C48.0086 99.4432 48.1529 97.6755 47.1814 96.8536C46.2099 96.0318 44.4906 96.4671 43.3411 97.8259C42.1916 99.1847 42.0473 100.952 43.0188 101.774C43.9902 102.596 45.7096 102.161 46.8591 100.802Z" fill="white"/>
<path d="M64.6457 84.7377C65.7952 83.3789 65.9395 81.6112 64.968 80.7894C63.9966 79.9675 62.2772 80.4028 61.1277 81.7616C59.9782 83.1204 59.8339 84.8881 60.8054 85.71C61.7769 86.5318 63.4962 86.0965 64.6457 84.7377Z" fill="white"/>
<path d="M85.3576 79.051C86.5071 77.6922 86.6514 75.9245 85.68 75.1026C84.7085 74.2808 82.9891 74.7161 81.8396 76.0749C80.6901 77.4337 80.5458 79.2014 81.5173 80.0233C82.4888 80.8451 84.2081 80.4098 85.3576 79.051Z" fill="white"/>
<path d="M105.525 57.616C106.674 56.2572 106.818 54.4895 105.847 53.6676C104.875 52.8458 103.156 53.2811 102.007 54.6399C100.857 55.9987 100.713 57.7664 101.684 58.5882C102.656 59.4101 104.375 58.9748 105.525 57.616Z" fill="white"/>
<path fill-rule="evenodd" clip-rule="evenodd" d="M99.4676 92.8354C99.5851 93.2343 99.357 93.6529 98.9582 93.7704C90.0616 96.3914 81.0854 100.099 68.2201 105.577C60.5151 108.857 51.1849 114.055 43.7633 118.446C40.0564 120.639 36.833 122.626 34.5365 124.065C33.3883 124.785 32.4721 125.367 31.8432 125.769C31.5287 125.97 31.2862 126.126 31.1224 126.232C31.0405 126.284 30.9783 126.325 30.9366 126.352L30.8745 126.392C30.8744 126.392 30.8743 126.392 30.4639 125.761C30.0534 125.13 30.0536 125.13 30.0538 125.129L30.118 125.088C30.1604 125.06 30.2234 125.02 30.3061 124.966C30.4715 124.859 30.7157 124.702 31.0319 124.5C31.6643 124.096 32.5845 123.511 33.7369 122.789C36.0417 121.345 39.2763 119.351 42.9965 117.15C50.4291 112.753 59.8295 107.512 67.6301 104.192C80.4851 98.7174 89.5393 94.9755 98.5326 92.3259C98.9315 92.2084 99.3501 92.4365 99.4676 92.8354ZM29.8326 126.171C29.606 125.823 29.7051 125.356 30.0538 125.129L30.4639 125.761L30.8745 126.392C30.5259 126.619 30.0593 126.52 29.8326 126.171Z" fill="#42AAFF"/>
<path d="M80.3384 91.6427L104.001 80.5142C132.688 67.0216 163.739 59.2613 195.407 57.6801L212.078 56.8469V238.993L195.076 240.037C163.628 241.964 132.853 249.986 104.463 263.649L80.3434 275.259V91.6427H80.3384Z" fill="#2B6FDF"/>
<path fill-rule="evenodd" clip-rule="evenodd" d="M114.484 168.365C115.164 168.843 115.329 169.782 114.851 170.462L108.079 180.105C107.78 180.531 107.282 180.772 106.762 180.743C106.242 180.714 105.774 180.418 105.525 179.961L103.231 175.754C102.833 175.024 103.102 174.109 103.832 173.711C104.562 173.313 105.477 173.582 105.875 174.312L107.008 176.39L112.386 168.732C112.864 168.051 113.803 167.887 114.484 168.365Z" fill="white"/>
<path fill-rule="evenodd" clip-rule="evenodd" d="M114.484 194.933C115.165 195.412 115.329 196.351 114.851 197.031L108.079 206.669C107.78 207.095 107.282 207.336 106.762 207.307C106.242 207.277 105.775 206.982 105.525 206.525L103.231 202.323C102.833 201.594 103.101 200.679 103.831 200.28C104.561 199.882 105.476 200.15 105.875 200.88L107.008 202.955L112.386 195.3C112.864 194.619 113.804 194.455 114.484 194.933Z" fill="white"/>
<path fill-rule="evenodd" clip-rule="evenodd" d="M114.484 223.947C115.164 224.424 115.329 225.364 114.851 226.044L108.079 235.687C107.78 236.113 107.282 236.354 106.762 236.325C106.242 236.296 105.774 236 105.525 235.542L103.231 231.336C102.833 230.606 103.102 229.691 103.832 229.293C104.562 228.895 105.477 229.164 105.875 229.894L107.008 231.972L112.386 224.313C112.864 223.633 113.803 223.469 114.484 223.947Z" fill="white"/>
<path fill-rule="evenodd" clip-rule="evenodd" d="M191.648 153.19C191.744 154.016 191.151 154.764 190.325 154.859C168.903 157.342 152.135 161.656 140.738 165.344C135.039 167.187 130.683 168.874 127.759 170.096C126.297 170.707 125.193 171.202 124.459 171.542C124.092 171.712 123.817 171.843 123.635 171.931C123.545 171.975 123.478 172.008 123.434 172.03L123.386 172.053L123.376 172.059L123.374 172.06C122.633 172.436 121.726 172.139 121.35 171.397C120.975 170.655 121.271 169.749 122.013 169.373L122.694 170.716C122.013 169.373 122.013 169.373 122.014 169.373L122.02 169.369L122.037 169.361C122.05 169.354 122.07 169.344 122.096 169.332C122.147 169.306 122.222 169.269 122.321 169.221C122.518 169.126 122.809 168.987 123.193 168.809C123.961 168.453 125.1 167.943 126.598 167.317C129.594 166.065 134.028 164.349 139.811 162.478C151.376 158.737 168.338 154.375 189.979 151.868C190.805 151.772 191.552 152.364 191.648 153.19Z" fill="white"/>
<path fill-rule="evenodd" clip-rule="evenodd" d="M191.648 178.499C191.744 179.325 191.151 180.073 190.325 180.168C168.903 182.65 152.135 186.965 140.738 190.653C135.039 192.496 130.683 194.183 127.759 195.405C126.297 196.016 125.193 196.511 124.459 196.851C124.092 197.021 123.817 197.152 123.635 197.24C123.545 197.284 123.478 197.317 123.434 197.339L123.386 197.362L123.376 197.368L123.374 197.368C123.374 197.368 123.374 197.368 123.374 197.369C122.632 197.744 121.726 197.448 121.35 196.706C120.975 195.964 121.271 195.058 122.013 194.682L122.694 196.025C122.013 194.682 122.013 194.682 122.014 194.681L122.016 194.681L122.02 194.678L122.037 194.67C122.05 194.663 122.07 194.653 122.096 194.64C122.147 194.615 122.222 194.578 122.321 194.53C122.518 194.434 122.809 194.295 123.193 194.118C123.961 193.762 125.1 193.252 126.598 192.626C129.594 191.374 134.028 189.658 139.811 187.787C151.376 184.045 168.338 179.684 189.979 177.177C190.805 177.081 191.552 177.673 191.648 178.499Z" fill="white"/>
<path fill-rule="evenodd" clip-rule="evenodd" d="M177.106 161.603C177.243 162.423 176.69 163.199 175.87 163.337C158.984 166.17 145.844 169.97 136.938 173.056C132.485 174.599 129.091 175.963 126.816 176.938C125.679 177.425 124.822 177.815 124.253 178.082C123.968 178.215 123.755 178.318 123.615 178.386C123.545 178.42 123.493 178.446 123.46 178.462L123.424 178.48L123.416 178.484L123.415 178.485C123.415 178.485 123.415 178.485 123.415 178.485C122.673 178.86 121.767 178.564 121.391 177.822C121.015 177.08 121.312 176.174 122.054 175.798L122.734 177.141C122.054 175.798 122.054 175.798 122.055 175.798L122.06 175.795L122.073 175.789L122.119 175.765C122.16 175.745 122.218 175.716 122.295 175.679C122.449 175.604 122.676 175.494 122.976 175.354C123.574 175.074 124.461 174.67 125.63 174.169C127.967 173.168 131.428 171.778 135.952 170.21C145.001 167.075 158.304 163.23 175.371 160.367C176.192 160.229 176.968 160.782 177.106 161.603Z" fill="white"/>
<path fill-rule="evenodd" clip-rule="evenodd" d="M161.754 189.712C161.938 190.523 161.431 191.33 160.62 191.515C148.543 194.267 139.21 197.315 132.906 199.67C129.754 200.847 127.36 201.851 125.759 202.558C124.959 202.912 124.357 203.191 123.958 203.38C123.758 203.475 123.61 203.547 123.512 203.595C123.463 203.618 123.428 203.636 123.405 203.648L123.38 203.66L123.375 203.663C123.374 203.663 123.374 203.663 123.374 203.663C123.374 203.663 123.374 203.663 122.694 202.32L122.013 200.976C121.271 201.352 120.975 202.258 121.35 203C121.726 203.742 122.632 204.039 123.374 203.663M122.694 202.32C122.013 200.976 122.013 200.976 122.014 200.976L122.018 200.974L122.027 200.969L122.061 200.953C122.089 200.938 122.131 200.917 122.186 200.891C122.295 200.837 122.455 200.759 122.667 200.659C123.09 200.458 123.717 200.168 124.543 199.803C126.194 199.074 128.643 198.048 131.852 196.849C138.27 194.451 147.733 191.363 159.951 188.579C160.762 188.394 161.569 188.901 161.754 189.712" fill="white"/>
<path fill-rule="evenodd" clip-rule="evenodd" d="M151.337 219.937C151.557 220.739 151.085 221.568 150.283 221.787C141.51 224.191 134.764 226.591 130.22 228.384C127.948 229.281 126.227 230.026 125.079 230.545C124.505 230.804 124.074 231.007 123.789 231.144C123.646 231.212 123.54 231.264 123.471 231.298C123.436 231.315 123.411 231.328 123.395 231.336L123.378 231.344L123.374 231.346C122.632 231.722 121.726 231.425 121.35 230.683C120.975 229.941 121.271 229.035 122.013 228.659L122.694 230.003C122.013 228.659 122.013 228.659 122.014 228.659L122.024 228.654L122.048 228.642C122.069 228.631 122.1 228.616 122.139 228.597C122.218 228.558 122.334 228.501 122.487 228.428C122.792 228.282 123.244 228.069 123.839 227.8C125.03 227.262 126.796 226.498 129.114 225.583C133.751 223.752 140.601 221.318 149.487 218.883C150.289 218.663 151.117 219.135 151.337 219.937Z" fill="white"/>
<path fill-rule="evenodd" clip-rule="evenodd" d="M191.648 205.59C191.744 206.416 191.151 207.163 190.325 207.259C168.903 209.741 152.135 214.056 140.738 217.743C135.039 219.587 130.683 221.274 127.759 222.496C126.297 223.107 125.193 223.601 124.459 223.941C124.092 224.111 123.817 224.243 123.635 224.331C123.545 224.375 123.478 224.408 123.434 224.429L123.386 224.453L123.376 224.458L123.374 224.459C123.374 224.459 123.374 224.459 123.374 224.459C122.632 224.835 121.726 224.538 121.35 223.797C120.975 223.055 121.271 222.149 122.013 221.773L122.694 223.116C122.013 221.773 122.013 221.772 122.014 221.772L122.016 221.771L122.02 221.769L122.037 221.761C122.05 221.754 122.07 221.744 122.096 221.731C122.147 221.706 122.222 221.669 122.321 221.621C122.518 221.525 122.809 221.386 123.193 221.208C123.961 220.853 125.1 220.343 126.598 219.717C129.594 218.465 134.028 216.749 139.811 214.878C151.376 211.136 168.338 206.775 189.979 204.267C190.805 204.172 191.552 204.764 191.648 205.59Z" fill="white"/>
<path d="M376.173 244.043L371.741 241.392C352.365 229.802 330.942 222.042 308.635 218.528V162.836C330.937 166.349 352.36 174.11 371.741 185.7L376.173 188.35V244.043Z" fill="#AAAAAA"/>
<path d="M213.398 323.387L215.29 328.266C215.29 328.266 216.324 332.227 220.169 334.29C220.169 334.29 221.605 330.043 225.962 329.125C225.962 329.125 224.24 324.823 223.437 319.602L213.398 323.387Z" fill="#D27540"/>
<path d="M204.428 196C204.428 196 200.754 193.39 197.697 191.934C194.635 190.478 196.472 187 191.598 185.911C191.598 185.911 190.679 184.475 189.962 181.232C189.244 177.99 188.787 177.588 187.894 177.448C187 177.307 186.001 178.708 186.804 182.984C187.607 187.261 188.611 188.636 188.611 188.636C188.611 188.636 184.626 188.179 183.446 188.922C182.272 189.67 183.446 191.849 183.446 191.849C183.446 191.849 180.806 193.309 182.211 195.347C182.211 195.347 180.439 196.753 181.8 198.505C183.16 200.257 186.026 202.003 186.915 201.23C187.803 200.457 186.543 198.535 186.543 198.535C186.543 198.535 189.987 203.068 195.036 203.324C200.086 203.58 201.637 203.324 201.637 203.324L204.428 196Z" fill="#D27540"/>
<path d="M259.011 234.972L216.661 231.629C209.116 231.032 203.384 238.29 205.708 245.493L210.125 259.187L201.16 262.6C194.916 264.979 191.708 271.901 193.932 278.206L208.73 320.089C209.458 322.152 211.139 323.779 213.257 324.326C214.864 324.737 216.992 324.888 219.652 324.256C221.008 323.934 222.092 323.447 222.955 322.875C225.646 321.093 226.825 317.73 225.987 314.613C225.485 312.741 224.225 310.492 222.408 304.519C218.734 292.472 214.603 279.501 214.603 279.501L218.734 278.467C218.734 278.467 220.912 284.089 223.211 286.498C225.505 288.908 229.18 288.104 229.18 288.104C229.18 288.104 229.867 280.992 238.129 283.742C238.129 283.742 241.111 281.218 237.211 273.528L262.459 265.612C262.459 265.612 285.755 268.824 291.262 246.106L259.016 234.972H259.011Z" fill="#1E1E1E"/>
<path d="M298.189 153.278C298.365 151.873 297.848 150.543 296.904 149.619C297.612 148.946 298.099 148.033 298.229 146.989C298.5 144.81 297.115 142.812 295.067 142.24C295.147 141.984 295.212 141.713 295.247 141.437C295.544 139.038 293.842 136.854 291.443 136.553C290.991 136.498 290.549 136.513 290.122 136.588C289.982 134.54 288.411 132.818 286.297 132.552C285.158 132.412 284.069 132.723 283.205 133.345C282.618 131.945 281.323 130.886 279.707 130.685C278.226 130.499 276.826 131.082 275.897 132.121C275.244 131.503 274.396 131.077 273.432 130.956C271.033 130.66 268.849 132.362 268.548 134.761C268.548 134.766 268.548 134.776 268.548 134.781C266.309 134.706 264.347 136.352 264.066 138.616C263.77 141.015 265.471 143.199 267.871 143.5C268.543 143.585 269.201 143.5 269.803 143.299C268.724 145.287 267.966 147.576 267.66 150.066C266.586 158.735 271.329 166.455 278.261 167.313C280.47 167.584 282.628 167.127 284.586 166.098C284.992 166.289 285.434 166.42 285.906 166.48C288.305 166.776 290.489 165.074 290.79 162.675C290.845 162.248 290.83 161.827 290.765 161.425C293.019 161.52 295.006 159.874 295.293 157.595C295.323 157.344 295.328 157.098 295.318 156.852C296.824 156.315 297.978 154.97 298.189 153.273V153.278Z" fill="#1E1E1E"/>
<path d="M264.783 156.943C266.993 156.943 268.784 155.151 268.784 152.942C268.784 150.732 266.993 148.941 264.783 148.941C262.574 148.941 260.783 150.732 260.783 152.942C260.783 155.151 262.574 156.943 264.783 156.943Z" fill="white"/>
<path fill-rule="evenodd" clip-rule="evenodd" d="M264.783 149.443C262.851 149.443 261.285 151.01 261.285 152.942C261.285 154.874 262.851 156.441 264.783 156.441C266.716 156.441 268.282 154.874 268.282 152.942C268.282 151.01 266.716 149.443 264.783 149.443ZM260.281 152.942C260.281 150.455 262.297 148.439 264.783 148.439C267.27 148.439 269.286 150.455 269.286 152.942C269.286 155.429 267.27 157.445 264.783 157.445C262.297 157.445 260.281 155.429 260.281 152.942Z" fill="#161616"/>
<path d="M276.529 153.364C276.529 153.364 270.31 150.723 270.626 141.025C270.626 141.025 266.907 139.284 265.667 144.544C264.427 149.8 263.423 168.131 267.293 169.763C270.536 171.128 273.829 169.647 273.829 169.647L275.249 176.72L286.86 175.108L285.69 166.113C285.69 166.113 280.776 166.259 278.949 159.558C278.949 159.558 281.644 159.221 281.79 155.698C281.93 152.174 277.804 151.466 276.524 153.374L276.529 153.364Z" fill="#D27540"/>
<path fill-rule="evenodd" clip-rule="evenodd" d="M260.549 151.461C260.577 151.185 260.823 150.984 261.099 151.012L276.293 152.538C276.569 152.566 276.77 152.812 276.743 153.087C276.715 153.363 276.469 153.564 276.193 153.537L260.999 152.011C260.723 151.983 260.522 151.737 260.549 151.461Z" fill="#161616"/>
<path fill-rule="evenodd" clip-rule="evenodd" d="M267.014 160.925C267.199 161.021 267.271 161.248 267.176 161.432C266.687 162.378 266.11 162.833 265.616 163.039C265.373 163.14 265.159 163.177 265.001 163.187C264.922 163.192 264.856 163.19 264.808 163.187C264.784 163.185 264.764 163.183 264.748 163.181C264.74 163.18 264.734 163.179 264.728 163.178L264.721 163.177L264.718 163.176L264.717 163.176L264.716 163.176C264.716 163.176 264.715 163.176 264.783 162.805L264.715 163.176C264.511 163.138 264.375 162.942 264.413 162.738C264.45 162.535 264.643 162.4 264.845 162.434C264.847 162.434 264.852 162.435 264.861 162.436C264.879 162.437 264.91 162.438 264.953 162.435C265.039 162.43 265.169 162.409 265.327 162.344C265.635 162.216 266.087 161.898 266.507 161.086C266.602 160.902 266.83 160.829 267.014 160.925Z" fill="black"/>
<path d="M273.864 178.672C273.864 178.672 273.683 177.839 273.472 176.248C273.307 175.023 273.613 173.844 276.243 173.407C280.043 172.774 286.764 171.389 288.059 173.648C288.516 174.451 289.309 179.375 289.309 179.375C289.309 179.375 295.925 179.721 303.5 196.005C311.074 212.289 319.643 227.056 315.742 232.337C311.842 237.617 295.468 238.305 295.468 238.305C295.468 238.305 293.481 251.923 286.9 253.605C280.319 255.286 260.276 253.911 252.932 247.712C245.589 241.513 251.863 237.688 254.614 232.031C257.37 226.369 258.82 203.188 258.82 203.188L242.226 215.371C239.103 217.665 235.063 218.297 231.383 217.077L202.867 207.59C201.145 207.018 199.855 205.572 199.514 203.79C198.957 200.859 199.183 196.587 204.413 194.785C205.231 194.504 206.12 194.454 206.968 194.62L236.403 200.357L256.185 183.843C259.177 181.343 262.851 179.797 266.726 179.405L273.859 178.677L273.864 178.672Z" fill="#CCCCCC"/>
<path d="M233.888 294.605L229.174 288.104C229.174 288.104 228.908 284.089 232.236 282.979C235.564 281.87 238.129 283.742 238.129 283.742L240.77 289.174L233.893 294.605H233.888Z" fill="#D27540"/>
<path d="M218.824 332.312C220.385 332.498 221.289 331.599 222.217 330.796C223.146 329.993 223.768 327.584 225.836 327.052C227.904 326.519 227.593 328.116 227.98 328.808C228.366 329.501 233.687 334.847 233.115 338.351C233.115 338.351 231.503 341.438 222.298 342.959C216.018 343.993 205.768 351.964 201.421 350.654C199.032 349.936 199.017 347.426 200.613 345.614C201.918 344.128 204.538 343.385 205.848 342.206C210.301 338.2 213.563 334.651 213.835 333.256C214.106 331.86 213.323 329.185 215.24 327.975C215.24 327.975 216.751 332.066 218.824 332.312Z" fill="#2B6FDF"/>
<path fill-rule="evenodd" clip-rule="evenodd" d="M233.671 337.848C233.951 338.156 233.929 338.632 233.622 338.912C229.945 342.264 226.56 342.91 223.599 343.476C223.208 343.55 222.825 343.623 222.45 343.701C219.731 344.264 218.183 345.034 213.314 347.454C212.538 347.84 211.677 348.268 210.714 348.744L210.714 348.744C207.195 350.479 204.881 351.158 203.413 351.393C202.677 351.51 202.147 351.517 201.78 351.486C201.597 351.471 201.454 351.446 201.347 351.421C201.294 351.408 201.25 351.395 201.214 351.384C201.196 351.378 201.18 351.372 201.166 351.367C201.159 351.365 201.153 351.362 201.147 351.36L201.139 351.357L201.135 351.355L201.133 351.354C201.132 351.354 201.131 351.353 201.421 350.659L201.131 351.353C200.747 351.193 200.566 350.752 200.726 350.369C200.882 349.995 201.304 349.813 201.68 349.952C201.683 349.953 201.688 349.954 201.695 349.955C201.725 349.962 201.793 349.976 201.907 349.986C202.134 350.005 202.54 350.007 203.175 349.906C204.449 349.702 206.615 349.086 210.048 347.393C211.007 346.92 211.868 346.491 212.648 346.103C217.48 343.699 219.224 342.831 222.145 342.226C222.539 342.145 222.932 342.069 223.327 341.993C226.266 341.428 229.258 340.853 232.608 337.799C232.915 337.519 233.391 337.541 233.671 337.848Z" fill="black"/>
<path fill-rule="evenodd" clip-rule="evenodd" d="M263.608 199.39C263.737 199.553 263.71 199.79 263.547 199.919L259.054 203.478C258.891 203.607 258.654 203.58 258.525 203.417C258.396 203.254 258.424 203.017 258.587 202.888L263.079 199.329C263.242 199.2 263.479 199.227 263.608 199.39Z" fill="black"/>
<path fill-rule="evenodd" clip-rule="evenodd" d="M236.685 200.103C236.823 200.259 236.808 200.497 236.652 200.634L234.418 202.602C234.262 202.74 234.024 202.725 233.886 202.569C233.749 202.413 233.764 202.175 233.92 202.037L236.154 200.07C236.31 199.932 236.548 199.947 236.685 200.103Z" fill="black"/>
<path fill-rule="evenodd" clip-rule="evenodd" d="M279.695 178.072C279.716 178.278 279.566 178.463 279.359 178.485L273.902 179.047C273.696 179.068 273.511 178.918 273.489 178.711C273.468 178.504 273.618 178.319 273.825 178.298L279.282 177.736C279.488 177.714 279.673 177.865 279.695 178.072Z" fill="black"/>
<path fill-rule="evenodd" clip-rule="evenodd" d="M300.546 194.429C300.753 194.425 300.925 194.59 300.929 194.798L300.553 194.805L300.176 194.813C300.172 194.605 300.338 194.433 300.546 194.429ZM300.553 194.805C300.176 194.813 300.176 194.813 300.176 194.813L300.177 194.828L300.177 194.874C300.178 194.915 300.179 194.976 300.18 195.057C300.182 195.22 300.183 195.462 300.184 195.777C300.185 196.409 300.179 197.336 300.156 198.517C300.11 200.88 299.99 204.258 299.699 208.32C299.117 216.445 297.847 227.294 295.098 238.203C295.047 238.405 295.169 238.609 295.371 238.66C295.573 238.711 295.777 238.589 295.828 238.387C298.591 227.421 299.866 216.525 300.45 208.374C300.743 204.297 300.862 200.905 300.909 198.532C300.932 197.345 300.937 196.413 300.937 195.776C300.936 195.458 300.934 195.214 300.933 195.049C300.932 194.967 300.931 194.904 300.93 194.862L300.93 194.815L300.929 194.798C300.929 194.798 300.929 194.798 300.553 194.805Z" fill="black"/>
<path fill-rule="evenodd" clip-rule="evenodd" d="M298.597 220.237C298.762 220.111 298.998 220.142 299.125 220.307L304.712 227.59C304.838 227.755 304.807 227.991 304.642 228.118C304.477 228.244 304.241 228.213 304.114 228.048L298.527 220.765C298.401 220.6 298.432 220.364 298.597 220.237Z" fill="black"/>
<path fill-rule="evenodd" clip-rule="evenodd" d="M248.269 245.479C248.316 245.609 248.248 245.753 248.118 245.8L210.21 259.418C210.079 259.465 209.936 259.397 209.889 259.266C209.842 259.136 209.91 258.992 210.04 258.945L247.948 245.327C248.079 245.28 248.222 245.348 248.269 245.479Z" fill="white"/>
<path fill-rule="evenodd" clip-rule="evenodd" d="M217.371 249.386C217.371 249.386 217.371 249.386 217.371 249.386L217.372 249.387L217.375 249.388L217.386 249.392C217.397 249.397 217.413 249.403 217.435 249.411C217.478 249.428 217.543 249.453 217.627 249.484C217.796 249.547 218.046 249.638 218.366 249.747C219.007 249.967 219.929 250.262 221.054 250.566C223.306 251.174 226.363 251.812 229.596 251.939C229.734 251.944 229.842 252.061 229.837 252.199C229.831 252.338 229.715 252.446 229.576 252.44C226.293 252.311 223.197 251.664 220.923 251.051C219.786 250.744 218.853 250.445 218.203 250.222C217.879 250.111 217.625 250.019 217.452 249.954C217.365 249.922 217.299 249.897 217.254 249.879C217.232 249.871 217.214 249.864 217.203 249.86L217.19 249.854L217.186 249.853L217.185 249.853C217.185 249.852 217.185 249.852 217.278 249.619L217.185 249.853C217.056 249.801 216.993 249.655 217.045 249.526C217.096 249.397 217.242 249.335 217.371 249.386Z" fill="white"/>
<path fill-rule="evenodd" clip-rule="evenodd" d="M237.449 273.463C237.484 273.597 237.405 273.734 237.271 273.77L218.799 278.704C218.665 278.74 218.527 278.661 218.491 278.527C218.456 278.393 218.535 278.255 218.669 278.219L237.141 273.285C237.275 273.249 237.413 273.329 237.449 273.463Z" fill="white"/>
<path fill-rule="evenodd" clip-rule="evenodd" d="M188.248 188.535C188.305 188.334 188.513 188.218 188.713 188.274L190.143 188.675C190.343 188.732 190.46 188.939 190.404 189.14C190.348 189.34 190.14 189.456 189.94 189.4L188.509 188.999C188.309 188.943 188.192 188.735 188.248 188.535Z" fill="black"/>
<path fill-rule="evenodd" clip-rule="evenodd" d="M184.981 191.029C185.033 191.015 185.087 191.012 185.141 191.02L188.981 191.622C189.186 191.655 189.326 191.847 189.294 192.053C189.262 192.258 189.069 192.399 188.864 192.366L185.105 191.777L183.547 192.211C183.347 192.267 183.139 192.15 183.083 191.95C183.027 191.75 183.144 191.542 183.345 191.486L184.981 191.029Z" fill="black"/>
<path fill-rule="evenodd" clip-rule="evenodd" d="M183.685 194.398C183.731 194.38 183.781 194.372 183.83 194.374L187.303 194.489C187.511 194.496 187.674 194.67 187.667 194.878C187.66 195.086 187.486 195.249 187.278 195.242L183.88 195.129L182.343 195.705C182.149 195.778 181.932 195.679 181.859 195.485C181.786 195.29 181.884 195.073 182.079 195L183.685 194.398Z" fill="black"/>
<path fill-rule="evenodd" clip-rule="evenodd" d="M185.425 197.335C185.537 197.309 185.656 197.336 185.746 197.408L186.78 198.242C186.941 198.372 186.967 198.609 186.836 198.771C186.706 198.933 186.469 198.958 186.307 198.828L185.416 198.11L183.787 198.485C183.584 198.532 183.382 198.405 183.335 198.203C183.289 198 183.415 197.798 183.618 197.751L185.425 197.335Z" fill="black"/>
<path fill-rule="evenodd" clip-rule="evenodd" d="M191.897 185.689L191.899 185.692L191.905 185.7L191.929 185.733C191.95 185.762 191.982 185.805 192.024 185.86C192.108 185.972 192.231 186.134 192.388 186.334C192.701 186.734 193.147 187.285 193.677 187.891C194.745 189.11 196.132 190.523 197.458 191.377C197.633 191.489 197.684 191.722 197.571 191.897C197.459 192.072 197.226 192.122 197.051 192.01C195.632 191.097 194.188 189.618 193.111 188.387C192.569 187.769 192.114 187.206 191.795 186.798C191.635 186.594 191.509 186.428 191.422 186.313C191.379 186.255 191.346 186.21 191.323 186.18L191.297 186.145L191.291 186.135L191.288 186.132C191.288 186.132 191.288 186.132 191.593 185.911L191.288 186.132C191.166 185.964 191.203 185.728 191.371 185.606C191.54 185.484 191.775 185.521 191.897 185.689Z" fill="black"/>
<path d="M245.357 292.406C245.357 292.406 242.245 284.892 237.612 287.126C232.497 289.595 233.195 295.503 234.339 300.207C235.484 304.91 231.011 315.07 236.292 315.813C243.786 316.872 244.554 302.787 244.554 302.787L245.357 292.401V292.406Z" fill="#2B6FDF"/>
<path d="M241.874 290.815C244.861 290.72 247.727 291.543 245.352 300.608H244.72C244.72 300.608 245.468 310.055 243.365 313.805C241.261 317.554 236.633 317.67 234.49 315.486C232.347 313.303 236.558 309.287 237.321 305.236C238.084 301.181 235.906 291.006 241.874 290.815Z" fill="#1E1E1E"/>
<path d="M234.45 303.866C234.45 303.866 233.612 296.668 231.976 291.96C231.976 291.96 233.732 294.279 234.646 293.646C235.56 293.014 235.946 297.165 235.831 299.404C235.715 301.642 234.45 303.866 234.45 303.866Z" fill="#2B6FDF"/>
<path d="M137.477 332.422L134.917 332.156C109.502 329.496 84.1735 320.305 61.3644 305.467L60.0142 304.589V252.119L61.3644 252.997C84.1785 267.835 109.502 277.026 134.917 279.687L137.477 279.953V332.422Z" fill="#3EAAFF"/>
<path d="M322.87 126.097L307.595 121.474C287.04 115.255 265.682 112.092 244.203 112.092H230.319V56.4001H244.203C265.682 56.4001 287.04 59.5625 307.595 65.7817L322.87 70.4048V126.097Z" fill="#80A8EB"/>
<path d="M161.525 132.082C171.046 121.366 171.905 106.584 163.444 99.0656C154.982 91.5476 140.404 94.1406 130.882 104.857C121.361 115.574 120.502 130.356 128.964 137.874C137.426 145.392 152.004 142.799 161.525 132.082Z" fill="white"/>
<path fill-rule="evenodd" clip-rule="evenodd" d="M131.164 105.107C121.722 115.734 120.966 130.264 129.214 137.592C137.462 144.92 151.802 142.459 161.243 131.832C170.685 121.205 171.441 106.675 163.193 99.347C154.945 92.0189 140.605 94.4804 131.164 105.107ZM128.714 138.155C120.038 130.447 121 115.413 130.601 104.607C140.202 93.8007 155.018 91.0762 163.693 98.7841C172.369 106.492 171.407 121.526 161.806 132.332C152.205 143.139 137.389 145.863 128.714 138.155Z" fill="black"/>
<mask id="mask0_3044_11355" style="mask-type:luminance" maskUnits="userSpaceOnUse" x="123" y="94" width="47" height="49">
<path d="M161.525 132.082C171.046 121.366 171.905 106.584 163.444 99.0656C154.982 91.5476 140.404 94.1406 130.882 104.857C121.361 115.574 120.502 130.356 128.964 137.874C137.426 145.392 152.004 142.799 161.525 132.082Z" fill="white"/>
</mask>
<g mask="url(#mask0_3044_11355)">
<path d="M142.476 114.194C144.52 111.897 144.703 108.723 142.884 107.105C141.066 105.487 137.935 106.038 135.891 108.335C133.848 110.631 133.665 113.805 135.484 115.423C137.302 117.041 140.433 116.49 142.476 114.194Z" fill="#1E1E1E"/>
<path d="M141.563 120.365C143.606 118.069 143.789 114.895 141.97 113.277C140.152 111.659 137.021 112.21 134.978 114.506C132.934 116.803 132.752 119.977 134.57 121.595C136.388 123.213 139.519 122.662 141.563 120.365Z" fill="#1E1E1E"/>
<path d="M145.409 124.038C147.453 121.741 147.635 118.567 145.817 116.949C143.998 115.332 140.867 115.882 138.824 118.179C136.78 120.476 136.598 123.649 138.416 125.267C140.235 126.885 143.365 126.335 145.409 124.038Z" fill="#1E1E1E"/>
<path d="M156.858 110.828C158.901 108.531 159.084 105.358 157.265 103.74C155.447 102.122 152.316 102.672 150.273 104.969C148.229 107.266 148.046 110.44 149.865 112.057C151.683 113.675 154.814 113.125 156.858 110.828Z" fill="#1E1E1E"/>
<path d="M146.064 109.084C148.107 106.787 148.29 103.614 146.471 101.996C144.653 100.378 141.522 100.928 139.479 103.225C137.435 105.522 137.252 108.696 139.071 110.314C140.889 111.932 144.02 111.381 146.064 109.084Z" fill="#1E1E1E"/>
<path d="M153.192 108.398C155.467 105.84 155.672 102.307 153.648 100.507C151.625 98.7064 148.14 99.3205 145.864 101.878C143.588 104.436 143.384 107.969 145.407 109.77C147.431 111.57 150.916 110.956 153.192 108.398Z" fill="#1E1E1E"/>
<path d="M157.768 116.576C159.812 114.279 159.995 111.106 158.176 109.488C156.358 107.87 153.227 108.42 151.183 110.717C149.14 113.014 148.957 116.188 150.776 117.805C152.594 119.423 155.725 118.873 157.768 116.576Z" fill="#1E1E1E"/>
<path d="M153.921 122.038C155.964 119.741 156.147 116.568 154.328 114.95C152.51 113.332 149.379 113.882 147.336 116.179C145.292 118.476 145.109 121.65 146.928 123.268C148.746 124.885 151.877 124.335 153.921 122.038Z" fill="#1E1E1E"/>
<path d="M140.664 119.998C138.938 120.405 137.537 119.331 137.537 117.604V116.66C137.537 115.697 138.32 114.733 139.284 114.507L140.664 114.186V120.003V119.998Z" fill="#D27540"/>
<path d="M152.556 117.212C154.282 116.806 155.683 115.079 155.683 113.352V112.409C155.683 111.445 154.9 110.848 153.936 111.074L152.556 111.395V117.212Z" fill="#D27540"/>
<path d="M163.835 133.25C162.053 131.634 159.774 130.605 157.189 130.294L152.495 129.721V127.814C152.495 126.755 151.637 126.097 150.578 126.348L142.918 128.14C141.859 128.386 141.001 129.445 141.001 130.504V132.171L135.549 134.922C131.805 136.814 128.607 140.011 126.655 143.821L121.826 153.238L153.946 145.719L163.087 138.129C164.753 136.749 165.105 134.405 163.83 133.245L163.835 133.25Z" fill="#1E1E1E"/>
<path d="M150.367 127.297C148.138 129.029 145.448 129.656 143.224 128.968V124.531L150.367 122.86V127.297Z" fill="#D27540"/>
<path d="M150.367 124.606C148.073 126.203 145.518 126.8 143.224 126.278V124.531L150.367 122.86V124.606Z" fill="#1E1E1E"/>
<path d="M153.083 109.763V117.474C153.083 121.047 150.186 124.626 146.612 125.46C143.038 126.298 140.142 124.079 140.142 120.5V112.087C140.142 109.663 142.105 107.239 144.529 106.671L148.665 105.703C151.105 105.13 153.088 106.646 153.088 109.091V109.758L153.083 109.763Z" fill="#D27540"/>
<path fill-rule="evenodd" clip-rule="evenodd" d="M148.881 120.006C148.988 120.095 149.002 120.254 148.913 120.36C147.899 121.575 146.856 121.837 146.048 121.767C145.652 121.732 145.323 121.619 145.093 121.515C144.978 121.462 144.886 121.412 144.823 121.374C144.791 121.355 144.766 121.338 144.748 121.327C144.739 121.321 144.732 121.316 144.727 121.312L144.721 121.308L144.719 121.306L144.718 121.306L144.718 121.306C144.718 121.306 144.718 121.305 144.865 121.103M145.013 120.899L145.015 120.901C145.017 120.902 145.021 120.905 145.027 120.909C145.038 120.917 145.057 120.929 145.081 120.943C145.131 120.973 145.205 121.014 145.3 121.058C145.492 121.145 145.765 121.238 146.092 121.267C146.729 121.322 147.614 121.133 148.528 120.038C148.617 119.932 148.775 119.918 148.881 120.006" fill="black"/>
<path d="M156.548 109.206C157.832 107.762 157.947 105.768 156.803 104.75C155.66 103.733 153.692 104.079 152.408 105.523C151.123 106.966 151.009 108.961 152.152 109.978C153.295 110.995 155.263 110.65 156.548 109.206Z" fill="#1E1E1E"/>
<path d="M153.798 106.595C155.083 105.151 155.197 103.156 154.054 102.139C152.911 101.122 150.942 101.468 149.658 102.911C148.374 104.355 148.259 106.35 149.403 107.367C150.546 108.384 152.514 108.038 153.798 106.595Z" fill="#1E1E1E"/>
<path d="M148.863 106.375C150.147 104.931 150.262 102.936 149.118 101.919C147.975 100.902 146.007 101.247 144.723 102.691C143.438 104.135 143.324 106.129 144.467 107.147C145.61 108.164 147.578 107.818 148.863 106.375Z" fill="#1E1E1E"/>
<path d="M144.185 108.151C145.47 106.708 145.584 104.713 144.441 103.696C143.298 102.678 141.33 103.024 140.045 104.468C138.761 105.911 138.647 107.906 139.79 108.923C140.933 109.941 142.901 109.595 144.185 108.151Z" fill="#1E1E1E"/>
<path d="M141.369 112.621C142.653 111.177 142.767 109.182 141.624 108.165C140.481 107.148 138.513 107.493 137.228 108.937C135.944 110.381 135.83 112.375 136.973 113.393C138.116 114.41 140.084 114.064 141.369 112.621Z" fill="#1E1E1E"/>
<path fill-rule="evenodd" clip-rule="evenodd" d="M141.445 114.111C140.367 115.322 140.333 116.911 141.198 117.68C142.062 118.45 143.637 118.231 144.715 117.02C145.792 115.809 145.826 114.219 144.961 113.45C144.097 112.681 142.522 112.899 141.445 114.111ZM140.864 118.055C139.715 117.033 139.884 115.109 141.069 113.777C142.255 112.445 144.146 112.053 145.295 113.075C146.444 114.097 146.275 116.022 145.09 117.354C143.905 118.686 142.013 119.077 140.864 118.055Z" fill="black"/>
<path fill-rule="evenodd" clip-rule="evenodd" d="M148.509 112.46C147.431 113.671 147.398 115.26 148.262 116.03C149.127 116.799 150.701 116.581 151.779 115.369C152.857 114.158 152.89 112.569 152.026 111.799C151.161 111.03 149.587 111.248 148.509 112.46ZM147.929 116.405C146.78 115.383 146.949 113.458 148.134 112.126C149.319 110.794 151.211 110.403 152.359 111.424C153.508 112.446 153.339 114.371 152.154 115.703C150.969 117.035 149.077 117.427 147.929 116.405Z" fill="black"/>
<path fill-rule="evenodd" clip-rule="evenodd" d="M147.65 113.772C147.682 113.907 147.598 114.042 147.463 114.074L145.877 114.445C145.742 114.477 145.607 114.393 145.575 114.258C145.543 114.123 145.627 113.988 145.762 113.956L147.348 113.585C147.483 113.553 147.618 113.637 147.65 113.772Z" fill="black"/>
</g>
<path fill-rule="evenodd" clip-rule="evenodd" d="M131.164 105.107C121.722 115.734 120.966 130.264 129.214 137.592C137.462 144.92 151.802 142.459 161.243 131.832C170.685 121.205 171.441 106.675 163.193 99.347C154.945 92.0189 140.605 94.4804 131.164 105.107ZM128.714 138.155C120.038 130.447 121 115.413 130.601 104.607C140.202 93.8007 155.018 91.0762 163.693 98.7841C172.369 106.492 171.407 121.526 161.806 132.332C152.205 143.139 137.389 145.863 128.714 138.155Z" fill="black"/>
<path d="M334.405 204.74C339.134 200.538 338.652 192.275 333.329 186.284C328.006 180.292 319.857 178.842 315.128 183.043C310.398 187.245 310.88 195.508 316.203 201.5C321.526 207.491 329.675 208.942 334.405 204.74Z" fill="white"/>
<path fill-rule="evenodd" clip-rule="evenodd" d="M315.378 183.325C310.862 187.337 311.241 195.348 316.485 201.25C321.728 207.151 329.639 208.471 334.155 204.459C338.67 200.447 338.291 192.435 333.048 186.534C327.805 180.632 319.893 179.313 315.378 183.325ZM315.922 201.75C310.519 195.669 309.935 187.154 314.878 182.762C319.821 178.37 328.208 179.953 333.611 186.034C339.014 192.115 339.598 200.63 334.655 205.022C329.712 209.413 321.325 207.831 315.922 201.75Z" fill="black"/>
<mask id="mask1_3044_11355" style="mask-type:luminance" maskUnits="userSpaceOnUse" x="311" y="180" width="27" height="28">
<path d="M334.405 204.74C339.134 200.538 338.652 192.275 333.329 186.284C328.006 180.292 319.857 178.842 315.128 183.043C310.398 187.245 310.88 195.508 316.203 201.5C321.526 207.491 329.675 208.942 334.405 204.74Z" fill="white"/>
</mask>
<g mask="url(#mask1_3044_11355)">
<path d="M323.061 183.898C323.061 183.898 318.347 182.432 318.112 188.039C317.876 193.646 318.051 195.759 316.5 198.173C314.949 200.588 314.277 201.577 314.743 203.479L334.862 207.118C334.862 207.118 335.007 205.477 333.426 202.586C331.845 199.694 331.318 196.055 331.288 191.979C331.258 187.903 328.417 182.472 323.061 183.903V183.898Z" fill="#833C31"/>
<path d="M320.947 192.481C319.903 192.291 319.06 191.292 319.06 190.253V189.68C319.06 189.098 319.532 188.712 320.114 188.817L320.947 188.968V192.481Z" fill="#FFA778"/>
<path d="M328.131 193.776C329.175 193.967 330.018 193.274 330.018 192.23V191.658C330.018 191.076 329.546 190.519 328.964 190.413L328.131 190.263V193.776Z" fill="#FFA778"/>
<path d="M334.942 206.29C333.868 204.87 332.488 203.675 330.927 202.837L328.091 201.316V200.166C328.091 199.529 327.574 198.916 326.936 198.801L322.308 197.963C321.67 197.847 321.153 198.269 321.153 198.911V199.915L317.861 200.211C315.597 200.417 313.669 201.547 312.49 203.359L309.573 207.836L328.974 211.345L334.496 209.056C335.499 208.639 335.715 207.314 334.942 206.295V206.29Z" fill="#2B6FDF"/>
<path d="M326.806 199.318C325.46 199.805 323.834 199.509 322.489 198.535V195.854L326.806 196.637V199.318Z" fill="#FFA778"/>
<path d="M326.806 197.692C325.42 198.078 323.874 197.802 322.489 196.909V195.854L326.806 196.637V197.692Z" fill="#1E1E1E"/>
<path d="M328.447 189.409V194.067C328.447 196.226 326.695 197.661 324.537 197.27C322.378 196.878 320.626 194.81 320.626 192.652V187.572C320.626 186.106 321.811 185.138 323.277 185.404C323.277 185.404 324.296 188.772 328.447 189.414V189.409Z" fill="#FFA778"/>
<path fill-rule="evenodd" clip-rule="evenodd" d="M323.322 194.009C323.427 193.918 323.585 193.928 323.677 194.033L323.488 194.198C323.677 194.033 323.677 194.033 323.677 194.033L323.676 194.032L323.676 194.032C323.676 194.032 323.676 194.032 323.676 194.032L323.678 194.034L323.685 194.042C323.692 194.05 323.704 194.062 323.719 194.077C323.749 194.108 323.794 194.152 323.852 194.202C323.97 194.304 324.134 194.428 324.328 194.525C324.711 194.717 325.182 194.797 325.663 194.422C325.772 194.336 325.93 194.356 326.015 194.465C326.1 194.575 326.081 194.732 325.971 194.817C325.287 195.351 324.593 195.22 324.103 194.974C323.861 194.852 323.661 194.701 323.523 194.581C323.454 194.521 323.399 194.468 323.361 194.43C323.342 194.41 323.327 194.395 323.317 194.383C323.312 194.378 323.308 194.373 323.305 194.37L323.301 194.365L323.3 194.364L323.299 194.364L323.299 194.363C323.299 194.363 323.299 194.363 323.488 194.198L323.299 194.363C323.208 194.259 323.218 194.1 323.322 194.009Z" fill="black"/>
</g>
<path fill-rule="evenodd" clip-rule="evenodd" d="M315.378 183.325C310.862 187.337 311.241 195.348 316.485 201.25C321.728 207.151 329.639 208.471 334.155 204.459C338.67 200.447 338.291 192.435 333.048 186.534C327.805 180.632 319.893 179.313 315.378 183.325ZM315.922 201.75C310.519 195.669 309.935 187.154 314.878 182.762C319.821 178.37 328.208 179.953 333.611 186.034C339.014 192.115 339.598 200.63 334.655 205.022C329.712 209.413 321.325 207.831 315.922 201.75Z" fill="black"/>
<path fill-rule="evenodd" clip-rule="evenodd" d="M277.067 75.2395C277.372 75.5227 277.389 75.9991 277.106 76.3036L272.036 81.7549C271.895 81.9061 271.699 81.9929 271.492 81.995C271.286 81.9971 271.087 81.9142 270.944 81.7659L268.64 79.3866C268.35 79.0879 268.358 78.6112 268.657 78.3219C268.956 78.0326 269.432 78.0403 269.722 78.339L271.474 80.1484L276.003 75.2781C276.286 74.9736 276.763 74.9563 277.067 75.2395Z" fill="white"/>
<path fill-rule="evenodd" clip-rule="evenodd" d="M277.067 83.5918C277.372 83.8749 277.389 84.3513 277.106 84.6559L272.036 90.1122C271.896 90.2637 271.699 90.3506 271.492 90.3526C271.285 90.3546 271.087 90.2716 270.943 90.1229L268.639 87.7386C268.35 87.4396 268.358 86.9629 268.657 86.674C268.957 86.385 269.433 86.3932 269.722 86.6922L271.474 88.5051L276.003 83.6309C276.286 83.3263 276.762 83.3088 277.067 83.5918Z" fill="white"/>
<path fill-rule="evenodd" clip-rule="evenodd" d="M275.079 93.5557C275.384 93.8387 275.401 94.3151 275.118 94.6198L271.047 99.0019C270.764 99.3065 270.288 99.3241 269.983 99.0411C269.678 98.758 269.661 98.2816 269.944 97.977L274.015 93.5949C274.298 93.2902 274.774 93.2727 275.079 93.5557Z" fill="white"/>
<path fill-rule="evenodd" clip-rule="evenodd" d="M269.983 93.5557C270.288 93.2727 270.764 93.2902 271.047 93.5949L275.118 97.977C275.401 98.2816 275.384 98.758 275.079 99.0411C274.774 99.3241 274.298 99.3065 274.015 99.0019L269.944 94.6198C269.661 94.3151 269.678 93.8387 269.983 93.5557Z" fill="white"/>
<path fill-rule="evenodd" clip-rule="evenodd" d="M346.723 195.764C346.831 195.509 347.125 195.39 347.381 195.498L347.185 195.96L346.99 196.422C346.734 196.314 346.615 196.02 346.723 195.764ZM347.185 195.96C346.99 196.422 346.99 196.422 346.99 196.422L347.027 196.438L347.138 196.485C347.235 196.527 347.38 196.589 347.567 196.67C347.942 196.832 348.487 197.07 349.166 197.372C350.525 197.975 352.423 198.835 354.577 199.861C358.89 201.916 364.21 204.627 368.291 207.269C368.524 207.419 368.834 207.353 368.985 207.12C369.136 206.887 369.069 206.577 368.836 206.426C364.7 203.747 359.331 201.014 355.009 198.955C352.845 197.924 350.939 197.06 349.574 196.454C348.891 196.151 348.343 195.912 347.966 195.749C347.777 195.667 347.631 195.604 347.532 195.562L347.42 195.514L347.381 195.498C347.381 195.497 347.381 195.498 347.185 195.96Z" fill="white"/>
<path fill-rule="evenodd" clip-rule="evenodd" d="M346.723 203.359C346.831 203.104 347.125 202.984 347.381 203.092L347.185 203.554L346.99 204.017C346.734 203.909 346.615 203.614 346.723 203.359ZM347.185 203.554C346.99 204.017 346.99 204.017 346.99 204.017L347.027 204.033L347.138 204.08C347.235 204.122 347.38 204.184 347.567 204.265C347.942 204.427 348.487 204.664 349.166 204.966C350.525 205.57 352.423 206.43 354.577 207.456C358.89 209.511 364.21 212.221 368.291 214.863C368.524 215.014 368.834 214.948 368.985 214.715C369.136 214.482 369.069 214.171 368.836 214.021C364.7 211.342 359.331 208.609 355.009 206.55C352.845 205.519 350.939 204.655 349.574 204.049C348.891 203.745 348.343 203.507 347.966 203.343C347.777 203.262 347.631 203.199 347.532 203.157L347.42 203.109L347.381 203.092C347.381 203.092 347.381 203.092 347.185 203.554Z" fill="white"/>
<path fill-rule="evenodd" clip-rule="evenodd" d="M346.723 211.094C346.831 210.839 347.125 210.719 347.381 210.827L347.185 211.29L346.99 211.752C346.734 211.644 346.615 211.349 346.723 211.094ZM347.185 211.29C346.99 211.752 346.99 211.752 346.99 211.752L347.027 211.768L347.138 211.815C347.235 211.857 347.38 211.919 347.567 212C347.942 212.162 348.487 212.4 349.166 212.701C350.525 213.305 352.423 214.165 354.577 215.191C358.89 217.246 364.21 219.956 368.291 222.599C368.524 222.749 368.834 222.683 368.985 222.45C369.136 222.217 369.069 221.907 368.836 221.756C364.7 219.077 359.331 216.344 355.009 214.285C352.845 213.254 350.939 212.39 349.574 211.784C348.891 211.481 348.343 211.242 347.966 211.079C347.777 210.997 347.631 210.934 347.532 210.892L347.42 210.844L347.381 210.827C347.381 210.827 347.381 210.827 347.185 211.29Z" fill="white"/>
<path fill-rule="evenodd" clip-rule="evenodd" d="M347.56 191.851C347.744 192.059 347.726 192.376 347.519 192.56L343.277 196.335C343.161 196.438 343.004 196.482 342.852 196.453C342.7 196.425 342.569 196.328 342.498 196.19L341.494 194.248C341.366 194.001 341.463 193.699 341.709 193.571C341.955 193.444 342.258 193.541 342.385 193.787L343.093 195.155L346.851 191.81C347.058 191.626 347.376 191.644 347.56 191.851Z" fill="white"/>
<path fill-rule="evenodd" clip-rule="evenodd" d="M346.872 198.683C347.057 198.89 347.038 199.207 346.831 199.392L342.59 203.166C342.474 203.27 342.317 203.313 342.165 203.285C342.012 203.257 341.882 203.16 341.81 203.022L340.806 201.085C340.679 200.839 340.775 200.536 341.021 200.408C341.267 200.281 341.57 200.377 341.698 200.623L342.405 201.987L346.164 198.642C346.371 198.458 346.688 198.476 346.872 198.683Z" fill="white"/>
<path fill-rule="evenodd" clip-rule="evenodd" d="M345.939 205.52C346.123 205.727 346.105 206.044 345.898 206.228L341.656 210.003C341.54 210.106 341.384 210.15 341.231 210.122C341.079 210.094 340.948 209.997 340.877 209.859L339.873 207.922C339.745 207.675 339.841 207.372 340.088 207.245C340.334 207.117 340.637 207.214 340.764 207.46L341.471 208.824L345.23 205.478C345.437 205.294 345.755 205.313 345.939 205.52Z" fill="white"/>
<path fill-rule="evenodd" clip-rule="evenodd" d="M262.198 65.491C262.198 65.4911 262.198 65.4911 262.108 66.2385L262.198 65.491C262.576 65.5368 262.861 65.8577 262.861 66.2385V105.181C262.861 105.396 262.768 105.602 262.607 105.745C262.445 105.888 262.23 105.954 262.016 105.928C257.869 105.416 251.792 105.158 246.729 105.028C244.202 104.964 241.936 104.932 240.301 104.916C239.484 104.907 238.825 104.903 238.371 104.901C238.144 104.9 237.968 104.9 237.848 104.9L237.668 104.899C237.668 104.899 237.667 104.899 237.667 104.146L237.668 104.899C237.468 104.899 237.276 104.82 237.135 104.679C236.994 104.538 236.915 104.346 236.915 104.146V65.4756C236.915 65.0704 237.235 64.7378 237.64 64.7231C244.649 64.4686 250.783 64.6601 255.166 64.9153C257.358 65.0429 259.113 65.1864 260.322 65.2983C260.926 65.3542 261.393 65.4022 261.711 65.4363C261.869 65.4534 261.991 65.467 262.072 65.4763C262.113 65.481 262.144 65.4847 262.166 65.4871L262.19 65.49L262.198 65.491ZM238.42 103.396C238.875 103.398 239.522 103.402 240.316 103.41C241.956 103.426 244.231 103.458 246.767 103.523C251.503 103.644 257.182 103.878 261.355 104.335V66.9129C261.058 66.8818 260.665 66.8424 260.183 66.7978C258.99 66.6873 257.252 66.5451 255.079 66.4186C250.884 66.1744 245.069 65.9889 238.42 66.2031V103.396Z" fill="white"/>
<path fill-rule="evenodd" clip-rule="evenodd" d="M259.372 89.3588C256.35 89.3588 253.901 91.8084 253.901 94.8301C253.901 97.8519 256.35 100.301 259.372 100.301C262.394 100.301 264.844 97.8519 264.844 94.8301C264.844 91.8084 262.394 89.3588 259.372 89.3588ZM251.893 94.8301C251.893 90.6995 255.242 87.3509 259.372 87.3509C263.503 87.3509 266.851 90.6995 266.851 94.8301C266.851 98.9608 263.503 102.309 259.372 102.309C255.242 102.309 251.893 98.9608 251.893 94.8301Z" fill="#004AB4"/>
<path fill-rule="evenodd" clip-rule="evenodd" d="M262.455 99.3551C262.883 99.0031 263.516 99.0651 263.868 99.4936L269.434 106.27C269.786 106.698 269.724 107.331 269.296 107.683C268.867 108.035 268.235 107.973 267.883 107.545L262.316 100.768C261.964 100.34 262.026 99.707 262.455 99.3551Z" fill="#004AB4"/>
<path fill-rule="evenodd" clip-rule="evenodd" d="M242.677 72.513L242.644 71.7608C242.229 71.7792 241.907 72.1308 241.925 72.5462C241.943 72.9617 242.295 73.2836 242.71 73.2652M242.71 73.2652L242.734 73.2642L242.805 73.2613C242.869 73.2588 242.964 73.2553 243.087 73.2511C243.332 73.2427 243.691 73.2317 244.142 73.2217C245.042 73.2016 246.308 73.1851 247.767 73.1994C250.691 73.2282 254.358 73.3809 257.401 73.8689C257.812 73.9347 258.198 73.6552 258.264 73.2446C258.329 72.834 258.05 72.4478 257.639 72.382C254.484 71.876 250.728 71.7226 247.781 71.6936C246.304 71.6791 245.021 71.6958 244.108 71.7162C243.651 71.7264 243.286 71.7375 243.035 71.7461C242.909 71.7504 242.812 71.754 242.746 71.7566L242.671 71.7597L242.645 71.7608C242.645 71.7608 242.644 71.7608 242.677 72.513" fill="white"/>
<path fill-rule="evenodd" clip-rule="evenodd" d="M242.677 77.0056L242.644 76.2534C242.229 76.2717 241.907 76.6233 241.925 77.0388C241.943 77.4542 242.295 77.7761 242.71 77.7578M242.71 77.7578L242.734 77.7568L242.805 77.7539C242.869 77.7514 242.964 77.7478 243.087 77.7436C243.332 77.7352 243.691 77.7243 244.142 77.7142C245.042 77.6941 246.308 77.6776 247.767 77.692C250.691 77.7207 254.358 77.8734 257.401 78.3614C257.812 78.4272 258.198 78.1477 258.264 77.7371C258.329 77.3266 258.05 76.9403 257.639 76.8745C254.484 76.3686 250.728 76.2151 247.781 76.1861C246.304 76.1716 245.021 76.1884 244.108 76.2087C243.651 76.2189 243.286 76.23 243.035 76.2386C242.909 76.2429 242.812 76.2466 242.746 76.2492L242.671 76.2522L242.645 76.2533C242.645 76.2533 242.644 76.2534 242.677 77.0056" fill="white"/>
<path fill-rule="evenodd" clip-rule="evenodd" d="M242.677 81.4931L242.644 80.7409C242.229 80.7592 241.907 81.1108 241.925 81.5263C241.943 81.9417 242.295 82.2636 242.71 82.2453M242.71 82.2453L242.734 82.2443L242.805 82.2414C242.869 82.2389 242.964 82.2353 243.087 82.2311C243.332 82.2227 243.691 82.2118 244.142 82.2017C245.042 82.1816 246.308 82.1651 247.767 82.1795C250.691 82.2082 254.358 82.361 257.401 82.8489C257.812 82.9147 258.198 82.6352 258.264 82.2247C258.329 81.8141 258.05 81.4278 257.639 81.362C254.484 80.8561 250.728 80.7026 247.781 80.6737C246.304 80.6591 245.021 80.6759 244.108 80.6962C243.651 80.7064 243.286 80.7175 243.035 80.7261C242.909 80.7304 242.812 80.7341 242.746 80.7367L242.671 80.7397L242.645 80.7408C242.645 80.7408 242.644 80.7409 242.677 81.4931" fill="white"/>
<path fill-rule="evenodd" clip-rule="evenodd" d="M242.677 85.9806L242.644 85.2284C242.228 85.247 241.907 85.5988 241.925 86.0142C241.944 86.4296 242.295 86.7513 242.711 86.7328M242.711 86.7328L242.719 86.7324L242.746 86.7313C242.77 86.7303 242.806 86.7288 242.854 86.7269C242.949 86.7233 243.09 86.7181 243.272 86.7123C243.636 86.7006 244.162 86.6863 244.812 86.6757C246.112 86.6545 247.902 86.6483 249.862 86.7081C250.278 86.7208 250.625 86.3941 250.638 85.9784C250.651 85.5628 250.324 85.2156 249.908 85.2029C247.918 85.1422 246.104 85.1486 244.788 85.17C244.129 85.1808 243.595 85.1953 243.224 85.2072C243.039 85.2131 242.894 85.2184 242.796 85.2222C242.747 85.2241 242.709 85.2256 242.683 85.2267L242.654 85.2279L242.644 85.2284C242.644 85.2284 242.644 85.2284 242.677 85.9806" fill="white"/>
<path d="M88.6612 162.002L63.3273 168.849C60.9279 169.497 58.9854 168.081 58.9854 165.682V153.273C58.9854 150.874 60.9279 148.404 63.3273 147.757L88.6612 140.91C91.0605 140.262 93.0031 141.678 93.0031 144.077V156.486C93.0031 158.885 91.0605 161.355 88.6612 162.002Z" fill="#959595"/>
<path fill-rule="evenodd" clip-rule="evenodd" d="M91.6304 141.309C91.812 141.518 91.7895 141.835 91.5801 142.017L76.8054 154.829C76.8049 154.83 76.8043 154.83 76.8037 154.831C76.4114 155.176 75.8625 155.359 75.3532 155.197L75.353 155.197L60.3294 150.434C60.0651 150.35 59.9188 150.068 60.0026 149.804C60.0864 149.539 60.3686 149.393 60.6328 149.477L75.6563 154.24C75.7486 154.27 75.9418 154.252 76.1416 154.076L76.1446 154.074L76.1447 154.074L90.9223 141.259C91.1318 141.077 91.4488 141.1 91.6304 141.309Z" fill="white"/>
<path fill-rule="evenodd" clip-rule="evenodd" d="M284.774 77.8419C284.85 77.433 285.243 77.1632 285.652 77.2391L285.514 77.9794L285.377 78.7196C284.968 78.6437 284.698 78.2507 284.774 77.8419ZM285.514 77.9794C285.377 78.7196 285.377 78.7196 285.377 78.7196L285.429 78.7294C285.464 78.736 285.516 78.7458 285.585 78.7588C285.722 78.7849 285.926 78.8237 286.188 78.8746C286.714 78.9764 287.477 79.1265 288.426 79.3196C290.324 79.7058 292.964 80.2636 295.932 80.9498C301.878 82.3248 309.1 84.2059 314.308 86.245C314.695 86.3966 315.132 86.2056 315.284 85.8184C315.435 85.4312 315.244 84.9944 314.857 84.8428C309.54 82.7608 302.227 80.8597 296.271 79.4826C293.287 78.7928 290.634 78.2322 288.726 77.844C287.772 77.6499 287.004 77.4988 286.475 77.3962C286.21 77.3449 286.005 77.3057 285.865 77.2793C285.796 77.2661 285.742 77.2561 285.707 77.2493L285.652 77.2391C285.652 77.2391 285.652 77.2391 285.514 77.9794Z" fill="white"/>
<path fill-rule="evenodd" clip-rule="evenodd" d="M284.774 81.2801C284.85 80.8712 285.243 80.6015 285.652 80.6775L285.514 81.4178L285.377 82.158C284.968 82.082 284.698 81.6889 284.774 81.2801ZM285.514 81.4178L285.377 82.158L285.466 82.1747C285.525 82.1859 285.613 82.2027 285.729 82.2248C285.961 82.269 286.301 82.3346 286.736 82.4202C287.606 82.5913 288.854 82.8421 290.364 83.1603C293.386 83.7971 297.456 84.7031 301.651 85.7812C302.053 85.8847 302.464 85.6421 302.567 85.2394C302.671 84.8366 302.428 84.4262 302.025 84.3227C297.802 83.2374 293.71 82.3263 290.675 81.6868C289.157 81.367 287.902 81.1148 287.026 80.9426C286.589 80.8565 286.246 80.7903 286.012 80.7456C285.895 80.7233 285.805 80.7063 285.745 80.6949L285.652 80.6775C285.652 80.6775 285.652 80.6775 285.514 81.4178Z" fill="white"/>
<path fill-rule="evenodd" clip-rule="evenodd" d="M284.774 91.6255C284.85 91.2166 285.243 90.9469 285.652 91.0229L285.514 91.7632L285.377 92.5034C284.968 92.4273 284.698 92.0343 284.774 91.6255ZM285.514 91.7632L285.377 92.5034L285.466 92.5201C285.525 92.5313 285.613 92.548 285.729 92.5701C285.961 92.6143 286.301 92.68 286.736 92.7655C287.606 92.9367 288.854 93.1875 290.364 93.5057C293.386 94.1424 297.456 95.0485 301.651 96.1266C302.053 96.2301 302.464 95.9875 302.567 95.5848C302.671 95.182 302.428 94.7716 302.025 94.6681C297.802 93.5828 293.71 92.6717 290.675 92.0322C289.157 91.7124 287.902 91.4602 287.026 91.288C286.589 91.2019 286.246 91.1357 286.012 91.091C285.895 91.0687 285.805 91.0517 285.745 91.0403L285.652 91.0229C285.652 91.0229 285.652 91.0229 285.514 91.7632Z" fill="white"/>
<path fill-rule="evenodd" clip-rule="evenodd" d="M284.774 100.631C284.85 100.222 285.243 99.952 285.652 100.028L285.514 100.768L285.377 101.509C284.968 101.432 284.698 101.039 284.774 100.631ZM285.514 100.768L285.377 101.509L285.466 101.525C285.525 101.536 285.613 101.553 285.729 101.575C285.961 101.619 286.301 101.685 286.736 101.771C287.606 101.942 288.854 102.193 290.364 102.511C293.386 103.148 297.456 104.054 301.651 105.132C302.053 105.235 302.464 104.993 302.567 104.59C302.671 104.187 302.428 103.777 302.025 103.673C297.802 102.588 293.71 101.677 290.675 101.037C289.157 100.718 287.902 100.465 287.026 100.293C286.589 100.207 286.246 100.141 286.012 100.096C285.895 100.074 285.805 100.057 285.745 100.045L285.652 100.028C285.652 100.028 285.652 100.028 285.514 100.768Z" fill="white"/>
<path fill-rule="evenodd" clip-rule="evenodd" d="M284.774 88.2174C284.85 87.8085 285.243 87.5386 285.652 87.6146L285.514 88.3549L285.377 89.0951C284.968 89.0192 284.698 88.6262 284.774 88.2174ZM285.514 88.3549C285.377 89.0951 285.377 89.0951 285.377 89.0951L285.429 89.1049C285.464 89.1114 285.516 89.1213 285.585 89.1343C285.722 89.1603 285.926 89.1992 286.188 89.2501C286.714 89.3519 287.477 89.502 288.426 89.6951C290.324 90.0813 292.964 90.6391 295.932 91.3253C301.878 92.7002 309.1 94.5814 314.308 96.6205C314.695 96.7721 315.132 96.5811 315.284 96.1939C315.435 95.8067 315.244 95.3699 314.857 95.2183C309.54 93.1363 302.227 91.2352 296.271 89.8581C293.287 89.1683 290.634 88.6077 288.726 88.2195C287.772 88.0253 287.004 87.8743 286.475 87.7717C286.21 87.7204 286.005 87.6812 285.865 87.6548C285.796 87.6416 285.742 87.6316 285.707 87.6248L285.652 87.6146C285.652 87.6145 285.652 87.6146 285.514 88.3549Z" fill="white"/>
<path fill-rule="evenodd" clip-rule="evenodd" d="M284.774 97.2677C284.85 96.8589 285.243 96.589 285.652 96.6649L285.514 97.4052L285.377 98.1455C284.968 98.0695 284.698 97.6766 284.774 97.2677ZM285.514 97.4052C285.377 98.1455 285.377 98.1455 285.377 98.1455L285.429 98.1552C285.464 98.1618 285.516 98.1716 285.585 98.1846C285.722 98.2107 285.926 98.2495 286.188 98.3004C286.714 98.4022 287.477 98.5523 288.426 98.7454C290.324 99.1317 292.964 99.6895 295.932 100.376C301.878 101.751 309.1 103.632 314.308 105.671C314.695 105.822 315.132 105.631 315.284 105.244C315.435 104.857 315.244 104.42 314.857 104.269C309.54 102.187 302.227 100.285 296.271 98.9085C293.287 98.2186 290.634 97.658 288.726 97.2698C287.772 97.0757 287.004 96.9246 286.475 96.822C286.21 96.7707 286.005 96.7315 285.865 96.7051C285.796 96.6919 285.742 96.6819 285.707 96.6752L285.652 96.6649C285.652 96.6649 285.652 96.6649 285.514 97.4052Z" fill="white"/>
</g>
<defs>
<linearGradient id="paint0_linear_3044_11355" x1="196" y1="-73.2007" x2="196" y2="388.853" gradientUnits="userSpaceOnUse">
<stop stop-color="#D9EDFF"/>
<stop offset="0.13" stop-color="#D9EDFF" stop-opacity="0.98"/>
<stop offset="0.27" stop-color="#DCEEFF" stop-opacity="0.93"/>
<stop offset="0.41" stop-color="#E0F0FF" stop-opacity="0.84"/>
<stop offset="0.56" stop-color="#E6F3FF" stop-opacity="0.72"/>
<stop offset="0.72" stop-color="#EDF6FF" stop-opacity="0.57"/>
<stop offset="0.87" stop-color="#F6FBFF" stop-opacity="0.38"/>
<stop offset="1" stop-color="white" stop-opacity="0.2"/>
</linearGradient>
<clipPath id="clip0_3044_11355">
<rect width="392" height="392" fill="white"/>
</clipPath>
</defs>
</svg>
