<?xml version="1.0" encoding="UTF-8"?>
<svg fill="none" viewBox="0 0 418 379" width="418" height="379" xmlns="http://www.w3.org/2000/svg">
<g clip-path="url(#a)">
<path d="m90.957 211.16-90.957 45.592v7.012l86.677 50.318 22.565-13.052v-7.012s-7.472 0.248-8.265-2.136c-2.2452-6.764 1.768-14.492 11.699-20.232 14.953-8.648 37.657-9.513 50.715-1.935l14.243-8.237v-7.012l-19.699-4.422c14.953-8.649 16.493-21.803 3.435-29.381s-35.762-6.713-50.714 1.935l-19.699-11.434" fill="#1E1E1E"/>
<path d="m327.57 199.79-22.564 6.035v7.012c13.058 7.577 11.518 20.732-3.435 29.38-14.952 8.648-37.657 9.513-50.714 1.935l-22.56 6.035v7.012l19.699 11.435c-14.953 8.648-16.493 21.802-3.435 29.38s35.762 6.713 50.715-1.935l23.455 13.313 99.278-57.414v-7.012l-90.434-45.181" fill="#1E1E1E"/>
<path d="m134.44 284.08c-14.952 8.648-16.492 21.803-3.434 29.381l-22.565 6.039v7.012l90.532 52.483 99.278-57.415v-7.012l-23.553-6.591c-14.953 8.648-37.657 9.513-50.715 1.935-13.058-7.577-11.518-20.732 3.435-29.38v-7.012l-19.699-4.422-22.564 13.052c-13.058-7.578-35.762-6.713-50.715 1.935" fill="#1E1E1E"/>
<path d="m219.18 136.96-99.278 50.402v7.012l19.699 11.434c14.953-8.648 37.657-9.513 50.715-1.935 8.685 5.039 10.911 12.551 7.028 19.559-1.4 2.524-10.463 2.809-10.463 2.809v7.012l19.699 11.435 22.564-13.052c13.053 7.578 35.762 6.713 50.714-1.935 14.953-8.649 16.488-21.803 3.435-29.381l22.56-13.047v-7.012l-86.682-43.306" fill="#1E1E1E"/>
<path d="m112.68 264.63c14.953-8.648 37.657-9.513 50.715-1.935l14.243-8.237-19.699-11.434c14.953-8.649 16.493-21.803 3.435-29.381s-35.762-6.713-50.714 1.935l-19.699-11.434-90.957 52.6 86.677 50.318 22.565-13.052c-13.058-7.577-11.518-20.732 3.434-29.38z" fill="#ddd"/>
<path d="m327.57 192.78-22.564 13.051c13.058 7.578 11.518 20.733-3.435 29.381-14.952 8.648-37.657 9.513-50.714 1.935l-22.56 13.047 19.699 11.434c-14.953 8.649-16.493 21.803-3.435 29.381 13.058 7.577 35.762 6.713 50.715-1.936l23.455 13.314 99.278-57.414-90.434-52.193h-5e-3z" fill="#ddd"/>
<path d="m223.98 302.9c-13.058-7.577-11.518-20.732 3.435-29.38l-19.699-11.434-22.564 13.052c-13.058-7.578-35.762-6.713-50.715 1.935-14.952 8.648-16.492 21.803-3.434 29.38l-22.565 13.052 90.532 52.483 99.278-57.415-23.553-13.603c-14.953 8.648-37.657 9.513-50.715 1.935v-5e-3z" fill="#ddd"/>
<path d="m190.32 196.86c13.058 7.578 11.517 20.732-3.435 29.38l19.699 11.435 22.564-13.052c13.053 7.578 35.762 6.713 50.714-1.935 14.953-8.649 16.488-21.803 3.435-29.381l22.56-13.047-86.682-50.318-99.278 57.414 19.699 11.435c14.952-8.649 37.657-9.513 50.714-1.936l0.01 5e-3z" fill="#ddd"/>
<g opacity=".08" style="mix-blend-mode:multiply">
<path d="m219.59 194.5c15.536-1.457 27.634-7.944 27.022-14.488-0.612-6.545-13.702-10.669-29.238-9.211-15.536 1.457-27.634 7.944-27.022 14.488 0.612 6.545 13.702 10.669 29.238 9.211z" fill="#000"/>
</g>
<path d="m203.27 172.49v4.376c2.137 2.01 3.757 2.103 6.239-0.262l0.047-4.694-6.291 0.575 5e-3 5e-3z" fill="#CFCFCF"/>
<path d="m220.56 167.11v5.675s4.9 1.87 6.431-0.337c0.177-2.987 0.177-4.712 0.177-4.712l-6.608-0.626z" fill="#CFCFCF"/>
<path d="m203.27 174.51s-0.649 0.458-0.985 2.669c-0.303 2.01 5.176 11.364 12.003 14.057 1.205 0.477 2.544-0.444 2.479-1.739-0.215-4.231-4.943-9.191-5.969-13.716-0.252-1.112-1.144-1.987-2.273-2.113-1.227-0.135-2.768 0.332-3.962 2.81-0.579-0.337-1.298-0.435-1.298-1.973l5e-3 5e-3z" fill="#444"/>
<path d="m220.56 169.7c-0.672 0-0.863 1.492-1.199 2.212-0.159 0.336-0.243 1.196-0.285 2.019-0.06 1.127 0.439 2.211 1.34 2.889 2.59 1.945 7.439 4.852 11.032 5.652 2.254 0.5 3.776 0.598 4.774 0.547 1.144-0.056 1.881-1.22 1.428-2.272-0.256-0.594-0.7-1.211-1.484-1.664-2.058-1.193-5.777-5.199-6.963-7.167-1.18-1.968-3.215-2.117-4.582 0-1.993 0-4.397-0.098-4.061-2.211v-5e-3z" fill="#444"/>
<path d="m212.41 99.089s-9.777-11.719-12.05 1.3977c-2.272 13.117 0 32.999 0 42.007s0.705 28.356 0.705 28.356 1.428 5.531 10.066 2.356c1.176-9.826 4.037-46.171 4.037-46.171l5.316 14.641-1.531 25.902s1.26 3.483 9.572 2.66c1.82-7.713 4.163-19.119 4.718-26.716 0.126-1.748 0.019-3.501-0.322-5.221-2.455-12.318-7.957-38.735-7.957-38.735l-12.549-0.4815-5e-3 0.0047z" fill="#1E1E1E"/>
<path d="m215.16 127.04 1.008-14.857" stroke="#1E1E1E" stroke-linecap="round" stroke-linejoin="round"/>
<path d="m208.09 44.793c-1.022-4.2774-5.656-5.619-8.097-2.688s-0.243 7.559 5.67 8.2088c2.194-3.3237 2.422-5.5208 2.422-5.5208h5e-3z" fill="#1E1E1E"/>
<path d="m211.33 37.767s-1.461-0.2244-1.685 0c-0.224 0.2243-5.022 12.888-11.854 17.287-6.832 4.3989-5.427 11.378 0.551 14.174 10.183-4.5812 14.696-7.9423 14.696-7.9423l0.364-24.252-2.072 0.734z" fill="#1E1E1E"/>
<path d="m216.05 61.318 0.382 0.0187c3.039 0.1496 6.077-0.2758 8.956-1.2528l6.846-2.3233c2.18-0.7386 3.846-2.5104 4.467-4.7262 0.821-2.9263 2.328-7.5122 4.895-13.047h5.815s-0.107 8.6575-0.835 15.847c-0.369 3.6462-2.446 6.8905-5.591 8.765-7.463 4.441-14.258 7.199-14.258 7.199s2.964 5.6985 0.257 10.789c-2.035 6.7409-2.035 16.978-2.035 16.978s-6.608 6.8668-24.599 0.9208c0.612-6.6801 1.592-12.014-0.98-16.184-2.692-4.1698-5.754-9.6859-4.162-14.038 1.591-4.3521 10.645-8.9193 20.832-8.9473h0.01z" fill="#2870DF"/>
<path d="m201.4 69.227-6.179 1.0378s-5.059 11.556-6.352 25.248c-0.406 4.31 3.524 7.8118 7.715 6.7498 5.67-1.43 11.046-4.4686 14.546-8.6431-1.409 0-3.122-1.8979-2.385-6.1285-6.118 2.9404-7.467 2.3888-10.22 2.9404 0.826-3.2816 4.224-12.257 4.224-12.257l-1.345-8.9474h-4e-3z" fill="#2870DF"/>
<path d="m236.88 76.511-24.818 23.532-1.064-1.6736 6.804-23.121 18.014-0.4114 1.064 1.6736z" fill="#959595"/>
<path d="m211.39 99 6.799-23.121 18.014-0.416" stroke="#1E1E1E" stroke-linecap="round" stroke-linejoin="round" stroke-width=".5"/>
<path d="m211.71 99.65 6.8-23.121 18.014-0.4114" stroke="#1E1E1E" stroke-linecap="round" stroke-linejoin="round" stroke-width=".5"/>
<path d="m242.52 40.539c-1.116-2.3093-1.956-3.6603-1.956-6.3623v-4.7261c0-0.4394 0.453-0.7386 0.85-0.561 0.48 0.2151 1.008 0.7012 1.101 1.7904 0.187 2.099 0.233 2.7207 0.233 2.7207l0.505-11.504c0.018-0.3786 0.331-0.6778 0.709-0.6778s0.691 0.2945 0.709 0.6731l0.355 6.97s1.521-1.9213 2.646 0.1122c1.12 0 1.75 0.7713 1.75 1.7296 0.443 0 1.493-0.0467 1.633 1.4398 0.089 0.949-0.07 2.0008-0.196 2.6319-0.079 0.4113-0.518 0.6544-0.9 0.4908-0.248-0.1075-0.504-0.3132-0.682-0.7012 0 2.9217-1.773 4.3989-2.38 6.222l-4.386-0.2431 9e-3 -0.0046z" fill="#833C32"/>
<path d="m249.43 30.703v2.6131c0 0.5096-0.476 0.8929-0.971 0.7713-0.415-0.1028-0.83-0.3412-0.924-0.8788" stroke="#1E1E1E" stroke-linecap="round" stroke-linejoin="round"/>
<path d="m247.68 28.974 0.191 3.6369c0.033 0.603-0.574 1.0471-1.129 0.818-0.518-0.215-1.027-0.8414-1.092-2.4261" stroke="#1E1E1E" stroke-linecap="round" stroke-linejoin="round"/>
<path d="m242.75 33.401s1.933 0.3927 2.894 1.8746" stroke="#1E1E1E" stroke-linecap="round" stroke-linejoin="round"/>
<path d="m211.64 54.993-2.38 7.2084s1.213 3.5107 5.446 3.4032c1.153-0.0281 2.17-0.7714 2.562-1.8559 1.213-3.3751 1.442-4.2353 1.442-4.2353l-7.075-4.5204h5e-3z" fill="#833C32"/>
<path d="m212.02 54.086c0.747 5.3478 2.987 9.714 5.969 7.6431 1.055-3.8052 1.507-5.3479 1.507-5.3479l-7.476-2.2952z" fill="#1E1E1E"/>
<path d="m209.02 49.07c-2.142-1.2388-4.149-0.3647-3.477 2.4448s3.038 3.0012 4.21 2.3234c0.914 1.8324 4.61 7.2083 9.469 6.7782 4.858-0.43 5.899-6.4744 5.166-10.812s-2.091-8.2976-3.902-9.3447c-1.815-1.0471-8.722 0-8.722 0l-2.744 8.6108z" fill="#833C32"/>
<path d="m207.53 47.574 1.493 1.4959s2.011 0.977 2.441-1.8325c0.425-2.8095 0.924-5.7031 2.245-7.0214 3.654 1.0471 7.691 1.0471 7.691 1.0471l1.26 2.1784s3.808-2.9871 0.756-7.1382c-3.048-4.1558-9.941-3.7257-13.11 0.4908-3.168 4.2166-2.776 10.78-2.776 10.78z" fill="#1E1E1E"/>
<path d="m218.34 52.595s1.792 1.4118 3.417-0.215" stroke="#1E1E1E" stroke-linecap="round" stroke-linejoin="round"/>
<path d="m215.86 50.444c1.675 0 3.033-1.3604 3.033-3.0385 0-1.6782-1.358-3.0386-3.033-3.0386-1.676 0-3.034 1.3604-3.034 3.0386 0 1.6781 1.358 3.0385 3.034 3.0385z" stroke="#1E1E1E" stroke-linecap="round" stroke-linejoin="round"/>
<path d="m224.06 50.444c1.675 0 3.033-1.3604 3.033-3.0385 0-1.6782-1.358-3.0386-3.033-3.0386-1.676 0-3.034 1.3604-3.034 3.0386 0 1.6781 1.358 3.0385 3.034 3.0385z" stroke="#1E1E1E" stroke-linecap="round" stroke-linejoin="round"/>
<path d="m218.89 47.406h2.137" stroke="#1E1E1E" stroke-linecap="round" stroke-linejoin="round"/>
<path d="m198.52 90.432 3.355-9.9197" stroke="#1E1E1E" stroke-linecap="round" stroke-linejoin="round"/>
<path d="m193.65 91.605c5.661-2.0569 8.279-0.5423 15.088-4.1137" stroke="#1E1E1E" stroke-linecap="round" stroke-linejoin="round"/>
<path d="m211.12 93.62s-3.225 4.0529-8.461 6.4231" stroke="#1E1E1E" stroke-linecap="round" stroke-linejoin="round"/>
<path d="m229.4 97.995-17.333 2.0477 6.805-23.121 18.014-0.4114-7.486 21.485z" fill="#ddd"/>
<path d="m208.74 87.491s1.843-4.2867 6.939-4.9786c-0.522 1.7998-0.676 2.4916-0.676 2.4916l7.033-0.2524c0.914-0.0327 1.521 1.0378 0.942 1.7483-0.112 0.1403-0.27 0.2712-0.476 0.3927 1.046 0.5002 0.873 1.7998-0.191 2.1877 0 0.9023 0.061 1.6502-1.703 1.8886 0.112 0.6077 0.14 1.5754-2.208 1.9681-2.347 0.3926-8.344 0.3225-8.344 0.3225s-2.189-1.3603-1.307-5.7592l-9e-3 -0.0093z" fill="#833C32"/>
<path d="m222.5 86.888-6.323 0.0608" stroke="#1E1E1E" stroke-linecap="round" stroke-linejoin="round"/>
<path d="m222.3 89.076h-6.132" stroke="#1E1E1E" stroke-linecap="round" stroke-linejoin="round"/>
<path d="m220.6 90.96-4.429 0.2056" stroke="#1E1E1E" stroke-linecap="round" stroke-linejoin="round"/>
<g opacity=".6">
<path d="m269.15 35.931c7.222-15.285 6.18-30.946-2.327-34.979-8.508-4.0338-21.26 5.0868-28.483 20.372-7.223 15.285-6.181 30.945 2.327 34.979 8.508 4.0338 21.26-5.0868 28.483-20.372z" fill="#80A9EB"/>
<path d="m253.75 28.632 20.208-12.346c0 14.169-9.124 31.4-20.208 38.169-4.032 2.4636-7.976 3.3284-11.322 2.4823l11.322-28.31v0.0047z" fill="#0059A0"/>
<path d="m253.75 28.632-10.715 28.441c-0.826-0.1542-1.62-0.4113-2.362-0.7666-8.451-4.0062-9.501-19.797-2.324-34.981 4.499-9.5223 11.434-17.105 18.313-20.031l-2.908 27.333-4e-3 0.0047z" fill="#B3DDFF"/>
<path d="m253.75 28.632 2.464-27.137c3.916-1.7764 7.607-1.9634 10.617-0.53759 0.826 0.39267 1.592 0.90221 2.296 1.5239l-15.372 26.15h-5e-3z" fill="#666"/>
</g>
<g opacity=".08" style="mix-blend-mode:multiply">
<path d="m91.001 265.02c15.014-4.258 25.735-12.837 23.948-19.162-1.788-6.324-15.408-7.999-30.422-3.741-15.014 4.258-25.735 12.838-23.947 19.162 1.7879 6.325 15.408 8 30.422 3.741z" fill="#000"/>
</g>
<path d="m76.368 244.8-4.2515 1.164v5.016l3.9482 3.496 3.1314-3.445v-6.231h-2.8281z" fill="#FF8438"/>
<path d="m89.51 235.65v6.573l5.3995-0.327 0.6067-6.48-6.0016 0.234h-0.0046z" fill="#FF8438"/>
<path d="m74.413 169.9s-4.5875 28.258-3.5422 77.487c1.6194 2.436 8.8157 2.043 10.164-0.262 0.406-6.166 5.6609-54.563 5.6609-54.563l1.4094 44.672s4.6762 3.669 9.3104-0.178c0.9753-37.14 3.9292-56.975 2.254-70.882-10.038 1.823-25.252 3.721-25.252 3.721l-0.0046 5e-3z" fill="#2870DF"/>
<path d="m86.692 192.57s-0.2053-3.969 3.4815-6.484" stroke="#1E1E1E" stroke-linecap="round" stroke-linejoin="round"/>
<path d="m84.451 125.77c-3.0474 1.72-9.9964 5.951-12.992 8.11-2.9961 2.16-5.2735 4.483-5.4742 11.968-0.1587 5.974-0.3687 12.612-0.448 19.549-0.0373 3.127 2.8701 5.497 5.9082 4.768 0.9521-0.229 1.7268-0.528 2.3708-0.902 0 1.561 0.28 2.88 3.7148 2.88s15.461 0.079 23.055-1.482c0.317-5.643 7.751-6.886 7.751-6.886s4.396 1.963 6.212-1.183c1.82-3.141 0.457-6.904-2.735-10.106-3.836-5.404-4.634-9.406-4.634-9.406s-2.156-8.326-5.913-11.364c-2.4129-1.954-7.0051-3.679-9.9779-4.661-1.652-0.547-2.8094-0.865-2.8094-0.865l-4.0275-0.425v5e-3z" fill="#666"/>
<path d="m83.536 126.54s-1.4794-0.799-2.2635 1.085c1.9695 2.328 4.0882 4.768 8.2417 4.487 4.1535-0.28 3.9108-4.314 3.9108-4.314s-0.9333-1.44-2.1421-0.744c-2.4081-0.463-7.7469-0.519-7.7469-0.519v5e-3z" fill="#959595"/>
<path d="m73.816 169.26s4.6342-3.08 8.0317-5.563c-1.8808-1.089-1.7174-4.202-1.1994-5.604-5.2362 1.519-9.707-0.519-11.947 1.72" stroke="#1E1E1E" stroke-linecap="round" stroke-linejoin="round"/>
<path d="m75.272 145.72 0.266 12.991" stroke="#1E1E1E" stroke-linecap="round" stroke-linejoin="round"/>
<path d="m98.386 138.64 1.2787 11.565" stroke="#1E1E1E" stroke-linecap="round" stroke-linejoin="round"/>
<path d="m111.36 140.13-20.082 29.381-1.6614-1.164v-24.454l20.082-4.927 1.661 1.164z" fill="#BFBFBF"/>
<path d="m90.191 168.78v-24.448l20.082-4.932" stroke="#1E1E1E" stroke-linecap="round" stroke-linejoin="round" stroke-width=".5"/>
<path d="m90.794 169.19v-24.453l20.082-4.927" stroke="#1E1E1E" stroke-linecap="round" stroke-linejoin="round" stroke-width=".5"/>
<path d="m110.43 164.04-19.148 5.469v-24.448l20.081-4.932-0.933 23.911z" fill="#8BCDFF"/>
<path d="m80.648 158.09 5.0588-6.652c0.4621-0.608 1.1807-0.963 1.9414-0.963h6.2536c0.266 0 0.4854 0.225 0.4714 0.491-0.014 0.29-0.1167 0.64-0.4574 0.841h0.6254c0.434 0 0.7327 0.445 0.56 0.842-0.21 0.472-1.008 0.645-1.008 0.645h0.1353c0.322 0 0.56 0.318 0.4433 0.617-0.126 0.337-0.4013 0.729-0.994 0.954-1.1854 0.444-3.9621 1.295-3.9621 1.295l3.7894-0.201c0.4201-0.024 0.7374 0.416 0.5461 0.79-0.1307 0.257-0.3874 0.509-0.8821 0.64-0.812 0.215-2.2121 0.374-3.1268 0.458-0.5693 0.052-1.0967 0.313-1.484 0.734-0.5087 0.552-1.2834 1.379-2.1328 2.225-1.4747 1.477-3.0988 3.207-4.9608 2.623-1.7548-1.146-0.8261-5.339-0.8261-5.339h0.0094z" fill="#EAA465"/>
<path d="m93.911 151.81-5.5489 0.524" stroke="#1E1E1E" stroke-linecap="round" stroke-linejoin="round"/>
<path d="m94.419 153.3-5.5675 0.809" stroke="#1E1E1E" stroke-linecap="round" stroke-linejoin="round"/>
<path d="m113.39 149.89c-0.023 0.177-0.074 0.374-0.149 0.584 0.672 0.673 0.448 1.608 0.173 1.889 0.364 0.64 0.252 1.762-0.378 2.122 0.228 0.365 0.28 0.664-0.038 1.108-0.2 0.28-0.522 0.458-0.868 0.486-1.372 0.122-2.249-0.149-2.52-1.033-0.91 0-1.106-0.626-1.106-1.187-0.737 0-0.91-0.907-0.681-1.393l-0.546 0.116c-0.374 0.08-0.747-0.121-0.882-0.476-0.14-0.365 0.014-0.781 0.359-0.963l4.919-2.595c0.896-0.36 1.848 0.384 1.713 1.342h4e-3z" fill="#EAA465"/>
<path d="m107.83 152.47 4.442-1.716" stroke="#1E1E1E" stroke-linecap="round" stroke-linejoin="round"/>
<path d="m108.51 153.86 3.71-0.949" stroke="#1E1E1E" stroke-linecap="round" stroke-linejoin="round"/>
<path d="m109.61 155.05 2.53-0.304" stroke="#1E1E1E" stroke-linecap="round" stroke-linejoin="round"/>
<path d="m74.254 251.39-2.1375-2.024s-0.0373 0.07-0.098 0.196c-0.686 1.426-0.6907 3.085-0.042 4.525 1.3721 3.071 4.2749 8.214 8.3677 10.439 4.9329 2.683 6.0482 0.257 5.3995-1.655-0.6533-1.912-3.8641-7.69-4.6528-9.742-0.7934-2.052-0.4667-5.502-3.3041-5.502-3.4908 0-3.5282 3.763-3.5282 3.763h-0.0046z" fill="#1E1E1E"/>
<path d="m91.423 240.76c-0.112-0.112-1.9181-1.729-1.9181-1.729s-0.7653 0.874-0.826 4.179c-0.014 0.781 0.3314 1.528 0.9427 2.019 2.6741 2.16 7.6536 5.989 12.544 6.877 1.167 0.21 2.156-0.916 1.778-2.043-1.115-3.319-4.3631-5.526-5.1845-6.68-3.2528-3.852-2.2634-5.848-4.9328-5.848-3.1548 0-2.4081 3.225-2.4081 3.225h0.0046z" fill="#1E1E1E"/>
<path d="m84.372 123.64c-1.82 0.869-4.4288 0.439-5.3622-1.851-3.4488 0-5.1148-1.978-4.3448-5.587-3.1735-1.837-3.0195-4.628-1.1994-6.451-1.6007-2.22-1.8807-6.881 3.0521-7.437 0-4.7543 2.6788-6.0492 6.501-5.1516 2.2494-3.0245 7.3642-4.4597 9.4876-0.6171 4.0042-0.6778 7.3643 1.0799 6.347 5.6187 3.1128 0.926 3.5748 4.175 1.5728 6.947 0.462 2.618 0.723 5.072-2.0349 6.479 0 2.375-1.0453 4.104-3.5748 4.474-3.2341 1.201-10.444 3.58-10.444 3.58v-4e-3z" fill="#FF8C03"/>
<path d="m83.537 118.62v7.929s1.9228 3.253 5.3762 3.253c1.9134 0 2.3708-1.337 2.3708-2.127v-6.549l-7.747-2.506z" fill="#EAA465"/>
<path d="m84.176 118.44s0.9847 6.661 5.1428 7.334c2.7442 0.445 1.9648-3.454 1.9648-3.454l-7.1076-3.875v-5e-3z" fill="#1E1E1E"/>
<path d="m81.74 117.32c1.1667 3.506 5.5816 6.661 9.6417 6.661 4.0602 0 5.1756-3.15 5.1756-5.997s0.252-5.488 0.252-5.488 3.3511-5.339-0.5087-9.658c-3.8548-4.3196-17.356-3.0013-18.728 6.203-1.372 9.2 4.1629 8.288 4.1629 8.288l0.0046-9e-3z" fill="#EAA465"/>
<path d="m81.74 117.32s-3.4675 0.243-3.0708-3.244c0.3967-3.488 3.5422-1.665 3.8222-0.43 0.616-1.543 0.2753-3.427 0.2753-3.427s3.2341-0.154 4.0648-3.146c2.1608 1.248 4.3449 1.141 5.8709-0.893 0.9474 0.949 2.3008 0.893 2.9401 0.524 0.5554 1.267 1.0454 1.757 1.4328 2.145 0.322 0.973 0.1913 2.015 1.0827 2.903 1.6427-3.319 2.7531-11.13-6.1183-11.841-8.8716-0.7106-14.201 1.5426-15.713 7.0686-1.5074 5.525-0.3407 9.905 2.4034 11.079 2.7441 1.173 3.0054-0.739 3.0054-0.739h0.0047z" fill="#FF8C03"/>
<path d="m89.174 119.11s0.8307 1.421 2.4034 1.113" stroke="#1E1E1E" stroke-linecap="round" stroke-linejoin="round"/>
<g opacity=".08" style="mix-blend-mode:multiply">
<path d="m332.12 274.88c15.014-4.258 25.735-12.838 23.948-19.162-1.788-6.325-15.408-7.999-30.422-3.741-15.013 4.258-25.735 12.837-23.947 19.162 1.788 6.324 15.408 7.999 30.421 3.741z" fill="#000"/>
</g>
<path d="m328.66 147.17-54.663 32.064c-3.654 2.146-8.256-0.495-8.256-4.74v-48.032c0-4.614 2.441-8.882 6.417-11.215l54.663-32.064c3.654-2.1456 8.256 0.4956 8.256 4.7402v48.032c0 4.614-2.441 8.882-6.417 11.214z" fill="#3BABFF" opacity=".5"/>
<path d="m276.71 124.77 45.24-25.664" stroke="#1E1E1E" stroke-linecap="round" stroke-linejoin="round"/>
<path d="m276.71 163.1 45.24-25.664" stroke="#1E1E1E" stroke-linecap="round" stroke-linejoin="round"/>
<path d="m276.71 128.75 36.807-20.882" stroke="#1E1E1E" stroke-linecap="round" stroke-linejoin="round"/>
<path d="m278.68 144.68c1.045-4.095 3.943-14.865 10.169-10.864 1.283 0.823 2.086 3.175 3.934 1.969 1.456-0.949 1.773-3.142 2.725-4.535 2.656-3.885 7.603-4.721 9.39-0.042 0.779 2.043 1.297 7.69 4.672 6.638 1.876-0.584 1.708-3.254 2.916-4.553 0.49-0.524 1.274-0.842 1.937-0.57 0.336 0.14 0.602 0.406 0.854 0.668 1.19 1.234 2.151 2.468 3.724 1.071 1.055-0.935 1.54-2.73 1.89-4.044" stroke="#fff" stroke-linecap="round" stroke-linejoin="round" stroke-width="2"/>
<path d="m299.57 151.85c-0.835-6.4 1.55-6.026 1.032-11.635-1.148-3.357-2.166-5.811-2.702-7.036-0.308-0.706-1.302-0.841-1.718-0.192-0.126 0.201-0.196 0.454-0.144 0.786 0.2 1.313 1.428 4.062 1.073 5.371-0.448-0.262-1.139-0.682-1.563-0.94-0.266-0.163-0.598-0.201-0.887-0.084-0.383 0.155-0.854 0.458-0.976 1.038-1.092 0-1.787 0.444-1.787 1.286-1.157 0.168-1.349 0.925-1.349 3.16v1.72c0 0.748 0.98 1.098 1.405 0.486 0.135-0.192 0.243-0.463 0.299-0.837 0.284 2.352 0 5.862 4.251 9.275 1.998-0.949 3.066-2.389 3.066-2.389v-9e-3z" fill="#FF8438"/>
<path d="m291.9 140.43 1.199 1.286" stroke="#1E1E1E" stroke-linecap="round" stroke-linejoin="round"/>
<path d="m293.68 139.15 1.432 1.201" stroke="#1E1E1E" stroke-linecap="round" stroke-linejoin="round"/>
<path d="m336.43 255.63c-0.313-0.07-4.956 0.444-4.956 0.444l0.135 3.889s5.274 3.707 9.147 3.357c3.873-0.351 2.758-3.838 2.758-5.806-3.211-1.398-7.084-1.889-7.084-1.889v5e-3z" fill="#0F3775"/>
<path d="m324.87 264.37v-2.342s-1.307-0.612-3.65 1.103c-1.881 1.379-5.642 2.155-8.167 2.338-1.572 0.112-2.132 2.206-0.774 3.015 9e-3 4e-3 0.018 9e-3 0.023 0.014 0.845 0.491 14.257 2.08 19.895 0.734 0.28-2.693-0.733-6.433-0.733-6.433l-3.038 1.015s0.42 2.202-2.026 2.029c-1.708 0-1.535-1.468-1.535-1.468l5e-3 -5e-3z" fill="#0F3775"/>
<path d="m324.56 257.75-0.681 8.339 6.141-0.341-0.686-6.428-4.774-1.57z" fill="#fff"/>
<path d="m336.43 254.92c-0.313-0.07-4.956 0.444-4.956 0.444l0.135 3.89s5.274 3.707 9.147 3.356c3.873-0.35 2.758-3.838 2.758-5.806-3.211-1.398-7.084-1.888-7.084-1.888v4e-3z" fill="#2870DF"/>
<path d="m324.87 263.55v-2.342s-1.307-0.612-3.65 1.103c-1.881 1.379-5.642 2.155-8.167 2.338-1.572 0.112-2.132 2.206-0.774 3.015 9e-3 4e-3 0.018 9e-3 0.023 0.014 0.845 0.491 14.257 2.08 19.895 0.734 0.28-2.693-0.733-6.433-0.733-6.433l-3.038 1.015s0.42 2.202-2.026 2.029c-1.708 0-1.535-1.468-1.535-1.468l5e-3 -5e-3z" fill="#2870DF"/>
<path d="m336.32 118.31c-3.551 2.057-5.773 5.782-6.552 10.467-0.779 4.684-2.651 11.56 3.663 9.844 0 1.641 0.234 4.063 0.234 4.063l7.798-1.248 1.092-4.843 4.21-10.467-10.45-7.811 5e-3 -5e-3z" fill="#FF8438"/>
<path d="m338.14 128.59s1.349-1.786 2.721-0.411c1.372 1.374-0.042 5.6-2.651 5.404 0.845 2.823 1.554 4.272 1.554 4.272l2.212 1.281s7.593-2.861 8.639-7.601c1.045-4.74 0.2-7.624-3.85-11.097-4.051-3.474-6.025-8.303-9.782-7.961-3.757 0.336-4.238 3.473-3.178 6.32 1.059 2.847 1.997 8.447 4.335 9.798v-5e-3z" fill="#1E1E1E"/>
<path d="m344.7 145.05-0.807-3.001c-0.299-1.103-1.311-1.861-2.45-1.832-1.755 0.046-4.513 0.252-7.514 0.958-0.835 0.196-1.46 0.907-1.549 1.758-0.247 2.337-0.107 3.711-0.107 3.711l-7.061 2.618c-1.666 0.617-3.16 1.627-4.354 2.945-2.357 2.609-6.385 7.409-9.162 12.58l-11.419-13.029s-4.434-1.496-5.302 3.763c2.002 4.951 6.758 16.114 11.705 22.439 1.899 2.426 5.572 2.445 7.467 9e-3 3.411-4.394 6.398-9.372 6.398-9.372s-0.084 3.814 1.073 7.189c1.158 3.38 1.76 6.98 0.803 9.925 3.276 2.318 13.506 6.53 24.295-1.141 3.249-1.879 5.82-3.539 7.701-5.184 2.128-1.865 3.201-4.666 2.959-7.489-0.56-6.535-1.914-15.483-3.58-20.84-1.129-3.632-4.499-6.147-8.298-6.072-0.508 9e-3 -0.802 0.06-0.802 0.06l4e-3 5e-3z" fill="#959595"/>
<path d="m352.02 156.1c-0.724 8.639-4.999 12.682-5.349 18.339-0.345 5.656 0.047 10.135 0.047 10.135" stroke="#1E1E1E" stroke-linecap="round" stroke-linejoin="round"/>
<path d="m311.7 164.78-3.038 4.296" stroke="#1E1E1E" stroke-linecap="round" stroke-linejoin="round"/>
<path d="m320.55 168.6 2.81-4.244" stroke="#1E1E1E" stroke-linecap="round" stroke-linejoin="round"/>
<path d="m347.52 170.49 1.75 3.319" stroke="#1E1E1E" stroke-linecap="round" stroke-linejoin="round"/>
<path d="m323.83 184.57s-8.129 33.209-8.129 45.068c0 11.86 8.129 31.33 8.129 31.33s2.268 4.749 9.101 0.795c0.364-7.012-1.615-18.9-3.762-26.473-0.835-2.945-0.849-6.068-0.088-9.032 1.904-7.418 2.702-11.228 2.702-11.228l3.14 13.781c0.378 1.664 0.593 3.366 0.64 5.072l0.55 20.956s2.829 4.974 8.573 2.497c1.68-7.611 1.148-22.747 0.532-30.002 0.22-9.943 1.316-25.136 1.316-25.136s2.572-7.877-0.611-18.676c-15.638 1.239-22.088 1.043-22.088 1.043l-5e-3 5e-3z" fill="#1E1E1E"/>
<path d="m331.61 216.08s-0.032 0-0.051-5e-3c-0.126-0.028-0.205-0.154-0.177-0.281 0.177-0.813 3.318-10.508 3.453-10.924 0.028-0.089 0.107-0.15 0.196-0.159 2.245-0.229 5.568-2.436 6.146-3.539 0.061-0.117 0.201-0.159 0.318-0.098 0.112 0.061 0.158 0.201 0.098 0.318-0.626 1.182-3.953 3.44-6.361 3.768-0.397 1.229-3.234 9.999-3.393 10.737-0.023 0.108-0.121 0.183-0.229 0.183z" fill="#ddd"/>
<g opacity=".08" style="mix-blend-mode:multiply">
<path d="m197.33 344.86c21.723 0 39.332-5.329 39.332-11.902s-17.609-11.902-39.332-11.902c-21.722 0-39.332 5.329-39.332 11.902s17.61 11.902 39.332 11.902z" fill="#000"/>
</g>
<path d="m189.6 333.49s3.752 0.907 2.884 2.104c-0.504 0.696-1.806 0.818-2.814 0.804-0.836-0.014-1.61 0.43-2.03 1.154-0.462 0.795-0.411 1.786 0.13 2.529l8.284 11.374c1.162 1.594 3.626 1.276 4.335-0.561 0.509-1.314 0.817-2.786 0.462-4.062-0.737-2.646-3.588-7.737-4.638-9.565-0.252-0.439-0.542-0.855-0.864-1.248l-2.385-2.875-4.643-0.846 1.279 1.197v-5e-3z" fill="#1E1E1E"/>
<path d="m204.41 333.48c-0.271 0-6.655 1.678-6.655 1.678l1.675 5.96 7.467-1.678-2.487-5.96z" fill="#fff"/>
<path d="m187.37 332.99 4.434 0.897 1.381 3.193-5.488 1.491-4.382-1.683 4.055-3.898z" fill="#fff"/>
<path d="m188.85 333.49s3.752 0.907 2.884 2.104c-0.504 0.696-1.806 0.818-2.814 0.804-0.836-0.014-1.61 0.43-2.03 1.154-0.462 0.795-0.411 1.786 0.13 2.529l8.284 11.374c1.162 1.594 3.626 1.276 4.336-0.561 0.508-1.314 0.816-2.786 0.462-4.062-0.738-2.646-3.589-7.737-4.639-9.565-0.252-0.439-0.542-0.855-0.864-1.248l-2.384-2.875-4.644-0.846 1.279 1.197v-5e-3z" fill="#2870DF"/>
<path d="m201.7 338.18c0.126 0.257 0.247 0.547 0.331 0.856 0.392 1.379-0.471 2.823-1.857 3.174-1.41 0.36-2.992 0.986-4.467 2.468-1.218 1.22-4.61 4.348-7.215 6.732-1.208 1.103-3.112 0.046-2.832-1.566 0.499-2.908 1.414-6.405 3.486-9.022 3.901-4.923 5.502-6.054 7.905-6.208 1.442-0.094 1.545 0.088 2.17 0.042 0.323-0.024 1.793-0.533 1.779-0.211-0.01 0.271-0.215 0.491-0.486 0.515-0.798 0.065-2.338 0.294-2.338 1.089 0 0.57 0.709 0.734 1.372 0.762 0.915 0.037 1.741 0.556 2.152 1.379v-0.01z" fill="#1E1E1E"/>
<path d="m202.22 338.18c0.126 0.258 0.247 0.547 0.331 0.856 0.392 1.379-0.471 2.823-1.857 3.174-1.41 0.36-2.992 0.986-4.466 2.468-1.218 1.22-4.611 4.348-7.215 6.732-1.209 1.103-3.113 0.047-2.833-1.566 0.499-2.908 1.54-6.596 3.696-9.144 4.079-4.82 5.563-5.768 7.915-6.306 1.442-0.332 2.53-0.458 3.15-0.505 0.322-0.023 0.588 0.234 0.579 0.556-9e-3 0.271-0.215 0.491-0.485 0.515-0.798 0.065-2.339 0.294-2.339 1.089 0 0.57 0.71 0.734 1.373 0.762 0.914 0.037 1.74 0.556 2.151 1.379v-0.01z" fill="#2870DF"/>
<path d="m183.3 317.3s-11.326-3.969-26.088-4.305c-5.829-0.131-9.403 6.32-6.258 11.242 3.874 6.054 11.541 10.719 34.763 15.974 2.133-3.273 3.267-4.624 3.622-7.471 3.481 0.711 11.294 0.996 13.991 0-1.064 2.702-0.107 6.512 1.349 7.971 7.649-0.44 25.411-0.842 36.322-11.163 5.068-4.797 1.885-13.305-5.082-13.594-7.873-0.332-16.796 0.5-26.55 1.776-17.333-0.855-26.069-0.425-26.069-0.425v-5e-3z" fill="#1E1E1E"/>
<path d="m189.34 332.97c-0.038 0-0.075-0.01-0.108-0.029-6.066-3.15-9.543-6.058-12.334-8.395-4.28-3.581-7.108-5.946-15.62-6.162-0.131 0-0.229-0.112-0.229-0.238s0.108-0.229 0.234-0.229h4e-3c8.676 0.215 11.551 2.627 15.905 6.269 2.777 2.323 6.226 5.212 12.25 8.339 0.117 0.061 0.159 0.201 0.098 0.314-0.042 0.079-0.121 0.126-0.205 0.126l5e-3 5e-3z" fill="#ddd"/>
<path d="m203.33 332.97c-0.094 0-0.182-0.056-0.22-0.149-0.046-0.122 0.014-0.257 0.136-0.299 2.935-1.113 5.614-2.539 8.447-4.049 6.314-3.365 12.843-6.843 22.639-6.843 0.13 0 0.233 0.103 0.233 0.233 0 0.131-0.103 0.234-0.233 0.234-9.679 0-16.157 3.45-22.42 6.788-2.847 1.519-5.539 2.95-8.503 4.071-0.028 0.01-0.056 0.014-0.084 0.014h5e-3z" fill="#ddd"/>
<path d="m193.74 277.04s-5.465 0.215-9.516 1.795c-4.545 1.776-15.452 14.417-15.452 14.417l-10.365-5.993s0.714 3.88-3.425 6.273c1.712 1.716 7.929 7.045 12.082 10.574 2.207 1.875 5.47 1.781 7.57-0.219l5.861-5.596 23.082 16.361 9.441 3.203s5.89 1.135 10.818-1.043c2.362-1.047 3.687-3.599 3.216-6.142-1.162-6.297-3.86-15.735-6.665-22.196-1.274-2.936-3.43-5.404-6.155-7.077-5.218-3.207-8.218-4.367-13.357-4.367h-7.135v0.01z" fill="#1552AF"/>
<path d="m168.77 293.25s1.969 1.113 4.382 3.53" stroke="#1E1E1E" stroke-linecap="round" stroke-linejoin="round"/>
<path d="m182.8 289.6 0.458 9.115h28.691l-0.756-9.704" stroke="#1E1E1E" stroke-linecap="round" stroke-linejoin="round"/>
<path d="m222.56 306.82s-6.09-1.023-10.612 3.866" stroke="#1E1E1E" stroke-linecap="round" stroke-linejoin="round"/>
<path d="m155.84 284.3c0-0.15-3.187-6.582-4.368-8.966-0.238-0.477-0.821-0.65-1.283-0.384-0.388 0.225-0.556 0.692-0.406 1.108l2.636 7.33" fill="#DE5C1D"/>
<path d="m151.37 280.49s-2.203-0.622-2.427 1.519c-1.4 0.444-1.647 1-1.4 2.651-0.924 0.925-1.157 1.561-0.466 2.809 0.69 1.248 1.157 1.917 2.445 1.762 0.658 0.66 3.561 4.077 6.674 4.254 1.432 0.085 2.45-1.519 2.79-2.697 0.402-1.384-9e-3 -2.384-9e-3 -2.384l-7.607-7.91v-4e-3z" fill="#DE5C1D"/>
<path d="m148.95 282s0.298 2.291 2.109 4.637c0.509 0.664 1.591 0.398 1.671-0.434 0.018-0.201 0-0.431-0.07-0.697" stroke="#1E1E1E" stroke-linecap="round" stroke-linejoin="round"/>
<path d="m147.55 284.66s0.648 1.935 2.184 3.202c0.588 0.486 1.484 0.182 1.633-0.566 0.042-0.206 0.042-0.346 0.042-0.346" stroke="#1E1E1E" stroke-linecap="round" stroke-linejoin="round"/>
<path d="m149.53 289.22s0.649-0.014 0.831-1.132" stroke="#1E1E1E" stroke-linecap="round" stroke-linejoin="round"/>
<path d="m214.22 319.73h-34.091l-4.667-22.953h43.425l-4.667 22.953z" fill="#747474"/>
<path d="m214.24 319.73h-34.114v1.701h34.114v-1.701z" fill="#969696"/>
<path d="m195.26 276.31s-1.783-0.163-1.871 1.183c-0.089 1.346 1.017 4.132 5.114 4.389 3.683 0.234 5.675-1.365 6.371-3.328 0.695-1.963-1.993-2.463-1.993-2.463l-7.621 0.219z" fill="#2870DF"/>
<path d="m189.99 255.52c-1.997 6.563-3.827 16.661-0.831 19.236 2.222 1.908 5.61-0.71 5.61-0.71v2.875c0 1.425 0.989 2.678 2.385 2.954 1.227 0.243 2.856 0.215 4.722-0.696 0.924-0.454 1.536-1.365 1.653-2.389 0.63-5.577 1.848-10.144 1.848-10.144l-3.501-8.401-8.941-2.725h-2.945z" fill="#DE5C1D"/>
<path d="m189.24 255.13c-0.71 2.31-0.56 5.54 5.759 7.218-0.262-2.407 0.592-4.913 0.592-4.913s0.262 4.946 3.883 6.825c2.058-2.062 4.737-0.856 4.476 1.547-0.262 2.408-2.1 3.114-3.323 2.408-0.261 2.669 0.364 8.307 0.364 8.307s4.937 0.659 8.391-2.441c0-7.615 0.457-15.59-4-18.951-4.456-3.361-7.089-3.034-9.823-2.968-2.735 0.065-5.563 0.5-6.319 2.968z" fill="#1E1E1E"/>
<path d="m187.6 270c0.691 0.061 1.382-0.084 2.077-0.701" stroke="#1E1E1E" stroke-linecap="round" stroke-linejoin="round"/>
<path d="m158.98 288.4-2.469-4.161c-0.485-0.78-1.349-1.243-2.268-1.22l-3.566 0.085c-0.835 0.018-1.232 1.047-0.62 1.617 0.532 0.496 1.549 0.916 3.476 0.907-0.14 1.874 0.416 3.225 0.416 3.225" fill="#DE5C1D"/>
<path d="m156.51 284.24c-0.485-0.78-1.349-1.243-2.268-1.22l-3.566 0.085c-0.835 0.018-1.232 1.047-0.62 1.617 0.532 0.496 1.549 0.916 3.476 0.907-0.14 1.874 0.416 3.225 0.416 3.225" stroke="#1E1E1E" stroke-linecap="round" stroke-linejoin="round"/>
<path d="m151.37 280.49 0.929 2.575" stroke="#1E1E1E" stroke-linecap="round" stroke-linejoin="round"/>
<path d="m179.04 255.99h-55.19c-3.328 0-6.025 2.702-6.025 6.035v36.135c0 3.333 2.697 6.035 6.025 6.035h55.19c3.327 0 6.025-2.702 6.025-6.035v-36.135c0-3.333-2.698-6.035-6.025-6.035z" fill="#3BABFF" opacity=".5"/>
</g>
<defs>
<clipPath id="a">
<rect width="418" height="379" fill="#fff"/>
</clipPath>
</defs>
</svg>
