<svg id="visual" viewBox="0 0 900 600" width="900" height="600" xmlns="http://www.w3.org/2000/svg" xmlns:xlink="http://www.w3.org/1999/xlink" version="1.1"><g><g transform="translate(648 201)"><path d="M103.8 -34.5C118.2 10.8 102.5 65.1 66.3 91.4C30.1 117.8 -26.6 116.2 -64.3 88.8C-102.1 61.3 -120.8 8 -107 -36.5C-93.1 -81 -46.5 -116.7 -0.9 -116.4C44.7 -116.1 89.3 -79.8 103.8 -34.5Z" stroke="#d8d8d8" fill="none" stroke-width="49"></path></g><g transform="translate(289 426)"><path d="M99 -30.5C111.8 7.4 94.5 56.8 60 81.7C25.5 106.5 -26.2 106.8 -58.2 82.9C-90.2 59 -102.6 10.8 -89.6 -27.3C-76.6 -65.4 -38.3 -93.5 2.4 -94.2C43.1 -95 86.1 -68.5 99 -30.5Z" stroke="#d8d8d8" fill="none" stroke-width="49"></path></g></g></svg>